<?xml version="1.0" encoding="UTF-8"?>
<svg version="1.1" xmlns="http://www.w3.org/2000/svg" width="256" height="256">
<path d="M0 0 C81.84 0 163.68 0 248 0 C248.33 10.23 248.66 20.46 249 31 C249.99 32.32 250.98 33.64 252 35 C252.28849475 37.61125706 252.40530279 39.98181381 252.38095093 42.59130859 C252.3856309 43.35961187 252.39031087 44.12791515 252.39513266 44.91950035 C252.40710626 47.49598792 252.39761636 50.07194591 252.38818359 52.6484375 C252.39224825 54.49473379 252.39758953 56.34102765 252.40411377 58.18731689 C252.41780578 63.20377806 252.41248093 68.22005441 252.40297651 73.23651886 C252.3953897 78.4823914 252.4024228 83.72824794 252.40713501 88.97412109 C252.41259541 97.78420864 252.40539347 106.59422078 252.39111328 115.40429688 C252.37478624 125.59495016 252.38007455 135.78542339 252.3965925 145.97607231 C252.41019924 154.72010783 252.41213099 163.4640891 252.40427649 172.20813179 C252.39959551 177.43295366 252.39898679 182.65769086 252.40888596 187.88250732 C252.41754152 192.79418125 252.4115595 197.70562266 252.39420319 202.61727142 C252.3902308 204.4216549 252.3913852 206.2260579 252.39799118 208.03043365 C252.40616717 210.49011855 252.39593333 212.94905447 252.38095093 215.40869141 C252.38764309 216.12580984 252.39433526 216.84292828 252.40123022 217.58177757 C252.34716128 222.14584668 251.91314494 223.11580675 249 227 C248.67 233.93 248.34 240.86 248 248 C166.16 248 84.32 248 0 248 C-0.33 241.4 -0.66 234.8 -1 228 C-1.66 227.01 -2.32 226.02 -3 225 C-3.19324577 222.42067549 -3.26959718 219.94978104 -3.25396729 217.37036133 C-3.25708727 216.5858727 -3.26020725 215.80138407 -3.26342177 214.99312305 C-3.27141948 212.35601674 -3.26507127 209.71913941 -3.25878906 207.08203125 C-3.26149814 205.19485336 -3.2650586 203.30767653 -3.26940918 201.42050171 C-3.27854537 196.28838394 -3.27498386 191.15634636 -3.26865101 186.02422714 C-3.26359738 180.66043629 -3.26828068 175.29665244 -3.27142334 169.93286133 C-3.27506485 160.92430383 -3.27025905 151.91577909 -3.26074219 142.90722656 C-3.24985729 132.48314571 -3.25338274 122.05914308 -3.264395 111.63506413 C-3.27346262 102.69489655 -3.27475572 93.75475256 -3.26951766 84.81458187 C-3.26639507 79.47074539 -3.26599654 74.12694571 -3.27259064 68.78311157 C-3.27835584 63.75987703 -3.27438236 58.73674363 -3.26280212 53.71352005 C-3.26015111 51.86678867 -3.26092812 50.02004882 -3.26532745 48.17332077 C-3.27076697 45.65864403 -3.2639683 43.14429439 -3.25396729 40.62963867 C-3.25842873 39.89336148 -3.26289017 39.15708429 -3.26748681 38.39849567 C-3.23887948 34.70740301 -3.1053456 33.15801839 -1 30 C-0.67 20.1 -0.34 10.2 0 0 Z M6 26 C6 26.33 6 26.66 6 27 C83.88 27 161.76 27 242 27 C242 26.67 242 26.34 242 26 C164.12 26 86.24 26 6 26 Z " fill="#0B0B0C" transform="translate(3,4)"/>
<path d="M0 0 C81.84 0 163.68 0 248 0 C248 54.45 248 108.9 248 165 C165.83 165 83.66 165 -1 165 C-1 158.4 -1 151.8 -1 145 C52.79 145 106.58 145 162 145 C161.67 138.73 161.34 132.46 161 126 C160.85471124 115.67079121 160.85471124 115.67079121 160.86105347 112.13745117 C160.86236582 110.9587294 160.86236582 110.9587294 160.86370468 109.75619507 C160.86485401 108.9497757 160.86600334 108.14335632 160.8671875 107.3125 C160.86651039 105.5915526 160.86553702 103.87060529 160.86428833 102.1496582 C160.86283046 98.57665072 160.86490336 95.00366856 160.86962891 91.43066406 C160.87532498 86.90981528 160.87203557 82.38902593 160.86605644 77.86817932 C160.86239857 74.32458062 160.86361307 70.78099541 160.86618423 67.23739624 C160.86683915 65.57286573 160.86607701 63.90833388 160.86370468 62.24380493 C160.85059063 50.4650873 161.28074259 38.75665453 162 27 C141.74654552 26.88322419 121.49315931 26.79504003 101.23943806 26.74093914 C91.83537356 26.715152 82.43151817 26.67999179 73.02758789 26.62280273 C64.83158501 26.57298331 56.63573357 26.54071269 48.43958348 26.52955753 C44.09926973 26.52303625 39.75938921 26.50769916 35.41921425 26.47134972 C31.33403598 26.43741308 27.24946943 26.42694215 23.16416359 26.43446159 C21.66493913 26.43308598 20.16569422 26.42313898 18.66659164 26.40397263 C16.6190903 26.37907883 14.57126076 26.38806112 12.52363586 26.39872742 C11.37784719 26.39411845 10.23205851 26.38950949 9.05154896 26.38476086 C5.09016977 27.18343575 3.57119333 28.97393227 1 32 C2.32 32.33 3.64 32.66 5 33 C4.34 33.66 3.68 34.32 3 35 C2.83312552 37.58354218 2.83312552 37.58354218 3 40 C1.68 39.34 0.36 38.68 -1 38 C-0.67 25.46 -0.34 12.92 0 0 Z " fill="#C53359" transform="translate(3,4)"/>
<path d="M0 0 C21.78 0 43.56 0 66 0 C66 38.94 66 77.88 66 118 C12.21 118 -41.58 118 -97 118 C-97 88.63 -97 59.26 -97 29 C-96.67 29.99 -96.34 30.98 -96 32 C-93.69 32 -91.38 32 -89 32 C-89 27.38 -89 22.76 -89 18 C-87.02 18 -85.04 18 -83 18 C-83.33 17.34 -83.66 16.68 -84 16 C-85.32 16 -86.64 16 -88 16 C-87.68783129 13.11243942 -87.46286623 11.46286623 -85.375 9.375 C-82.27425185 7.57983002 -79.81238934 7.49061947 -76.25 7.3125 C-75.07953125 7.24675781 -73.9090625 7.18101563 -72.703125 7.11328125 C-71.36507812 7.05720703 -71.36507812 7.05720703 -70 7 C-70.66 6.34 -71.32 5.68 -72 5 C-70.02 5 -68.04 5 -66 5 C-65.67 3.68 -65.34 2.36 -65 1 C-64.34 2.32 -63.68 3.64 -63 5 C-61.35 5 -59.7 5 -58 5 C-58.33 5.66 -58.66 6.32 -59 7 C-52.07 7 -45.14 7 -38 7 C-38.495 6.01 -38.495 6.01 -39 5 C-37.35 5 -35.7 5 -34 5 C-33.34 3.68 -32.68 2.36 -32 1 C-31.01 2.485 -31.01 2.485 -30 4 C-27.94996045 5.19232613 -27.94996045 5.19232613 -26 6 C-26.33 6.33 -26.66 6.66 -27 7 C-19.74 7 -12.48 7 -5 7 C-5.495 6.01 -5.495 6.01 -6 5 C-4.35 5 -2.7 5 -1 5 C-0.67 3.35 -0.34 1.7 0 0 Z " fill="#19407A" transform="translate(99,31)"/>
<path d="M0 0 C81.84 0 163.68 0 248 0 C248 15.18 248 30.36 248 46 C219.62 46 191.24 46 162 46 C162 39.73 162 33.46 162 27 C141.74653569 26.88428031 121.49316468 26.79504005 101.23943806 26.74093914 C91.83537356 26.715152 82.43151817 26.67999179 73.02758789 26.62280273 C64.83158501 26.57298331 56.63573357 26.54071269 48.43958348 26.52955753 C44.09926973 26.52303625 39.75938921 26.50769916 35.41921425 26.47134972 C31.33403598 26.43741308 27.24946943 26.42694215 23.16416359 26.43446159 C21.66493913 26.43308598 20.16569422 26.42313898 18.66659164 26.40397263 C16.6190903 26.37907883 14.57126076 26.38806112 12.52363586 26.39872742 C11.37784719 26.39411845 10.23205851 26.38950949 9.05154896 26.38476086 C5.09016977 27.18343575 3.57119333 28.97393227 1 32 C2.32 32.33 3.64 32.66 5 33 C4.34 33.66 3.68 34.32 3 35 C2.83312552 37.58354218 2.83312552 37.58354218 3 40 C1.68 39.34 0.36 38.68 -1 38 C-0.67 25.46 -0.34 12.92 0 0 Z " fill="#FEFEFE" transform="translate(3,4)"/>
<path d="M0 0 C82.17 0 164.34 0 249 0 C249 6.6 249 13.2 249 20 C166.83 20 84.66 20 0 20 C0 13.4 0 6.8 0 0 Z " fill="#FCF9F8" transform="translate(2,189)"/>
<path d="M0 0 C82.17 0 164.34 0 249 0 C249 6.6 249 13.2 249 20 C166.83 20 84.66 20 0 20 C0 13.4 0 6.8 0 0 Z " fill="#CA343C" transform="translate(2,169)"/>
<path d="M0 0 C82.17 0 164.34 0 249 0 C249 6.6 249 13.2 249 20 C166.83 20 84.66 20 0 20 C0 13.4 0 6.8 0 0 Z " fill="#FDFEFD" transform="translate(2,149)"/>
<path d="M0 0 C0.33 0.66 0.66 1.32 1 2 C31.59983902 2.04562279 62.19967026 2.08101812 92.79953516 2.10213066 C96.41192975 2.10463208 100.02432427 2.10722072 103.63671875 2.10986328 C104.35588305 2.1103879 105.07504734 2.11091252 105.8160045 2.11145304 C117.461409 2.12015623 129.10679376 2.13592573 140.75218655 2.15430559 C152.70096541 2.17300704 164.64973394 2.18411724 176.59852684 2.18817699 C183.31017063 2.19067524 190.02177326 2.19668524 196.73340225 2.21146011 C203.04848689 2.22501824 209.36350822 2.2292262 215.67860603 2.22621536 C217.99817181 2.22676632 220.31773966 2.23075424 222.63729286 2.23841095 C225.80133367 2.24834439 228.96513469 2.2459746 232.12918091 2.24050903 C233.50954314 2.24924756 233.50954314 2.24924756 234.91779149 2.25816262 C235.76923611 2.25418052 236.62068074 2.25019842 237.49792671 2.24609566 C238.59266042 2.24723482 238.59266042 2.24723482 239.70950997 2.24839699 C242.68366655 2.00778028 242.68366655 2.00778028 248 0 C248 6.93 248 13.86 248 21 C166.16 21 84.32 21 0 21 C0 14.07 0 7.14 0 0 Z " fill="#FEFEFE" transform="translate(3,231)"/>
<path d="M0 0 C81.84 0 163.68 0 248 0 C248 10 248 10 245.5625 13.0625 C244.716875 13.701875 243.87125 14.34125 243 15 C242.67 15.33 242.34 15.66 242 16 C238.97964591 16.10913327 235.98181111 16.15224989 232.96064758 16.15390015 C232.0003082 16.1582824 231.03996881 16.16266465 230.05052823 16.1671797 C226.80622591 16.18062149 223.56195079 16.18675861 220.31762695 16.19287109 C218.0021197 16.20076788 215.6866137 16.20903656 213.37110901 16.21765137 C205.7435118 16.24392232 198.11590896 16.25918488 190.48828125 16.2734375 C187.86678755 16.27879525 185.24529389 16.28417275 182.62380028 16.28956985 C171.72153963 16.31120675 160.81928132 16.33009609 149.91700459 16.34119225 C147.0860271 16.34412206 144.25504966 16.3470837 141.42407227 16.35009766 C140.72042654 16.35084371 140.01678082 16.35158976 139.2918125 16.35235842 C127.89536697 16.36500963 116.49907755 16.3982274 105.10270498 16.43989949 C93.40701494 16.48231596 81.71140481 16.50588708 70.01563805 16.51111281 C63.44699707 16.51477227 56.87862047 16.52685678 50.31005287 16.55921555 C44.13027699 16.58922131 37.95092649 16.5956345 31.77109337 16.58383179 C29.50150342 16.58361042 27.23189417 16.59196728 24.96237183 16.60948563 C21.86582238 16.63208847 18.77082685 16.62392266 15.67427063 16.60800171 C14.774166 16.6218838 13.87406137 16.63576588 12.94668084 16.65006864 C8.98802513 16.59985251 5.77442022 16.33431092 2.39535809 14.14949989 C0 11 0 11 0 0 Z " fill="#DD6E32" transform="translate(3,209)"/>
<path d="M0 0 C28.38 0 56.76 0 86 0 C86 6.6 86 13.2 86 20 C57.62 20 29.24 20 0 20 C0 13.4 0 6.8 0 0 Z " fill="#FCF9F9" transform="translate(165,70)"/>
<path d="M0 0 C28.38 0 56.76 0 86 0 C86 6.27 86 12.54 86 19 C57.62 19 29.24 19 0 19 C0 12.73 0 6.46 0 0 Z " fill="#C0183B" transform="translate(165,130)"/>
<path d="M0 0 C28.38 0 56.76 0 86 0 C86 6.27 86 12.54 86 19 C57.62 19 29.24 19 0 19 C0 12.73 0 6.46 0 0 Z " fill="#FDFDFD" transform="translate(165,110)"/>
<path d="M0 0 C10.50927549 -0.02257371 21.01853494 -0.04092829 31.52782917 -0.05181217 C36.40747794 -0.05703533 41.2871093 -0.06412275 46.16674805 -0.07543945 C50.87404235 -0.08628839 55.58131988 -0.09228111 60.28862572 -0.09487724 C62.08639986 -0.09672786 63.88417306 -0.10034154 65.68194008 -0.10573006 C68.19593937 -0.11296707 70.70986895 -0.11398981 73.22387695 -0.11352539 C73.97050095 -0.11712067 74.71712494 -0.12071594 75.4863739 -0.12442017 C78.6015585 -0.1181747 81.02058151 0.0068605 84 1 C84 1.66 84 2.32 84 3 C84.66 3 85.32 3 86 3 C86 8.28 86 13.56 86 19 C57.62 19 29.24 19 0 19 C0 12.73 0 6.46 0 0 Z " fill="#F4F4F4" transform="translate(165,31)"/>
<path d="M0 0 C21.78 0 43.56 0 66 0 C66 6.27 66 12.54 66 19 C65.67 19 65.34 19 65 19 C65 16.36 65 13.72 65 11 C56.09 11 47.18 11 38 11 C38 11.99 38 12.98 38 14 C37.05125 13.67 36.1025 13.34 35.125 13 C32.22937548 11.89840809 32.22937548 11.89840809 30 12 C30 12.66 30 13.32 30 14 C26.37 14 22.74 14 19 14 C19 15.32 19 16.64 19 18 C20.65 18 22.3 18 24 18 C24 18.66 24 19.32 24 20 C22.68 20.33 21.36 20.66 20 21 C20.495 23.97 20.495 23.97 21 27 C20.071875 26.814375 19.14375 26.62875 18.1875 26.4375 C14.98656229 25.75876119 14.98656229 25.75876119 12 27 C12.33 25.02 12.66 23.04 13 21 C11.515 20.505 11.515 20.505 10 20 C10 19.67 10 19.34 10 19 C11.65 19 13.3 19 15 19 C15 17.02 15 15.04 15 13 C14.22914062 13.09539063 13.45828125 13.19078125 12.6640625 13.2890625 C11.15972656 13.45535156 11.15972656 13.45535156 9.625 13.625 C8.62726563 13.74101563 7.62953125 13.85703125 6.6015625 13.9765625 C5.74304688 13.98429687 4.88453125 13.99203125 4 14 C3.01 13.01 3.01 13.01 2 12 C-0.78237655 12.40528901 -0.78237655 12.40528901 -3 14 C-4.85287502 14.07226502 -6.70833878 14.0838122 -8.5625 14.0625 C-9.57441406 14.05347656 -10.58632812 14.04445313 -11.62890625 14.03515625 C-12.41136719 14.02355469 -13.19382812 14.01195312 -14 14 C-14 15.32 -14 16.64 -14 18 C-12.35 18 -10.7 18 -9 18 C-9 18.99 -9 19.98 -9 21 C-10.485 21.495 -10.485 21.495 -12 22 C-12 23.65 -12 25.3 -12 27 C-12.763125 26.62875 -13.52625 26.2575 -14.3125 25.875 C-15.199375 25.58625 -16.08625 25.2975 -17 25 C-17.99 25.66 -18.98 26.32 -20 27 C-19.95875 26.236875 -19.9175 25.47375 -19.875 24.6875 C-19.77919176 21.77281584 -19.77919176 21.77281584 -22 19 C-20.68 18.67 -19.36 18.34 -18 18 C-17.67 16.35 -17.34 14.7 -17 13 C-17.84304687 13.09539063 -18.68609375 13.19078125 -19.5546875 13.2890625 C-20.65039062 13.39992188 -21.74609375 13.51078125 -22.875 13.625 C-24.51082031 13.79902344 -24.51082031 13.79902344 -26.1796875 13.9765625 C-27.57574219 13.98816406 -27.57574219 13.98816406 -29 14 C-29.66 13.34 -30.32 12.68 -31 12 C-34.09926819 12.32198966 -34.09926819 12.32198966 -37 13 C-37 12.34 -37 11.68 -37 11 C-44.59 11 -52.18 11 -60 11 C-60.33 11.99 -60.66 12.98 -61 14 C-61.66 13.34 -62.32 12.68 -63 12 C-64.98491642 12.26676204 -64.98491642 12.26676204 -67 13 C-70.20015856 14.06671952 -71.88544294 13.94845472 -75.1875 13.5625 C-76.08855469 13.46066406 -76.98960938 13.35882813 -77.91796875 13.25390625 C-78.60503906 13.17011719 -79.29210937 13.08632813 -80 13 C-79.81171228 15.44480079 -79.81171228 15.44480079 -79 18 C-77.03241727 19.36020151 -77.03241727 19.36020151 -75 20 C-75.66 20.66 -76.32 21.32 -77 22 C-77.16687448 24.58354218 -77.16687448 24.58354218 -77 27 C-77.928125 26.835 -78.85625 26.67 -79.8125 26.5 C-82.95621353 25.92251612 -82.95621353 25.92251612 -86 26 C-85.79375 25.401875 -85.5875 24.80375 -85.375 24.1875 C-84.69328085 21.71549154 -84.69328085 21.71549154 -87 19 C-85.68 19 -84.36 19 -83 19 C-83.33 18.01 -83.66 17.02 -84 16 C-85.32 16 -86.64 16 -88 16 C-87.68783129 13.11243942 -87.46286623 11.46286623 -85.375 9.375 C-82.27425185 7.57983002 -79.81238934 7.49061947 -76.25 7.3125 C-75.07953125 7.24675781 -73.9090625 7.18101563 -72.703125 7.11328125 C-71.36507812 7.05720703 -71.36507812 7.05720703 -70 7 C-70.66 6.34 -71.32 5.68 -72 5 C-70.02 5 -68.04 5 -66 5 C-65.67 3.68 -65.34 2.36 -65 1 C-64.34 2.32 -63.68 3.64 -63 5 C-61.35 5 -59.7 5 -58 5 C-58.33 5.66 -58.66 6.32 -59 7 C-52.07 7 -45.14 7 -38 7 C-38.495 6.01 -38.495 6.01 -39 5 C-37.35 5 -35.7 5 -34 5 C-33.34 3.68 -32.68 2.36 -32 1 C-31.34 1.99 -30.68 2.98 -30 4 C-27.94996045 5.19232613 -27.94996045 5.19232613 -26 6 C-26.33 6.33 -26.66 6.66 -27 7 C-19.74 7 -12.48 7 -5 7 C-5.495 6.01 -5.495 6.01 -6 5 C-4.35 5 -2.7 5 -1 5 C-0.67 3.35 -0.34 1.7 0 0 Z " fill="#BFCCDA" transform="translate(99,31)"/>
<path d="M0 0 C0 6.27 0 12.54 0 19 C-28.38 19 -56.76 19 -86 19 C-86 13.06 -86 7.12 -86 1 C-75.96823572 0.86906611 -65.93646596 0.73857381 -55.90468597 0.60884857 C-51.24602402 0.54858798 -46.58736469 0.48813751 -41.92871094 0.42724609 C-37.42888458 0.36843775 -32.9290519 0.31013733 -28.42921448 0.25218201 C-26.71651476 0.23003551 -25.00381737 0.20770916 -23.29112244 0.18519592 C-20.88354072 0.15357986 -18.4759514 0.12261612 -16.06835938 0.09179688 C-15.01746628 0.07777077 -15.01746628 0.07777077 -13.94534302 0.0634613 C-9.29571475 0.00483308 -4.65086396 0 0 0 Z " fill="#C0183B" transform="translate(251,90)"/>
<path d="M0 0 C0.88786697 -0.00014603 1.77573395 -0.00029205 2.69050598 -0.0004425 C5.63402728 0.00025584 8.57748581 0.00804458 11.52099609 0.01586914 C13.55837978 0.0177336 15.5957639 0.01915737 17.63314819 0.02015686 C23.00241325 0.02397984 28.37165137 0.03380828 33.74090576 0.04486084 C39.217078 0.05507966 44.69325458 0.05965549 50.16943359 0.06469727 C60.91944545 0.07543072 71.66943728 0.09250454 82.41943359 0.11352539 C82.08943359 1.76352539 81.75943359 3.41352539 81.41943359 5.11352539 C80.09943359 5.44352539 78.77943359 5.77352539 77.41943359 6.11352539 C77.91443359 7.10352539 77.91443359 7.10352539 78.41943359 8.11352539 C70.49943359 8.11352539 62.57943359 8.11352539 54.41943359 8.11352539 C54.74943359 7.45352539 55.07943359 6.79352539 55.41943359 6.11352539 C54.46037109 5.68040039 54.46037109 5.68040039 53.48193359 5.23852539 C51.41943359 4.11352539 51.41943359 4.11352539 50.41943359 2.11352539 C49.75943359 3.10352539 49.09943359 4.09352539 48.41943359 5.11352539 C46.29443359 5.80102539 46.29443359 5.80102539 44.41943359 6.11352539 C44.91443359 7.10352539 44.91443359 7.10352539 45.41943359 8.11352539 C37.82943359 8.11352539 30.23943359 8.11352539 22.41943359 8.11352539 C22.74943359 7.45352539 23.07943359 6.79352539 23.41943359 6.11352539 C22.80068359 6.01040039 22.18193359 5.90727539 21.54443359 5.80102539 C19.41943359 5.11352539 19.41943359 5.11352539 17.41943359 2.11352539 C17.08943359 3.10352539 16.75943359 4.09352539 16.41943359 5.11352539 C14.35693359 5.80102539 14.35693359 5.80102539 12.41943359 6.11352539 C12.74943359 6.77352539 13.07943359 7.43352539 13.41943359 8.11352539 C11.97310547 8.16959961 11.97310547 8.16959961 10.49755859 8.22680664 C9.23427734 8.29254883 7.97099609 8.35829102 6.66943359 8.42602539 C5.41646484 8.4840332 4.16349609 8.54204102 2.87255859 8.60180664 C-0.6333144 9.12134212 -2.10804674 9.64100572 -4.58056641 12.11352539 C-5.37680462 14.20768343 -5.37680462 14.20768343 -5.58056641 16.11352539 C-3.93056641 15.78352539 -2.28056641 15.45352539 -0.58056641 15.11352539 C-0.58056641 16.10352539 -0.58056641 17.09352539 -0.58056641 18.11352539 C-2.56056641 18.11352539 -4.54056641 18.11352539 -6.58056641 18.11352539 C-6.58056641 22.73352539 -6.58056641 27.35352539 -6.58056641 32.11352539 C-8.89056641 32.11352539 -11.20056641 32.11352539 -13.58056641 32.11352539 C-14.50245101 29.34787157 -14.69841863 27.73068837 -14.67822266 24.88305664 C-14.67338867 23.67939453 -14.67338867 23.67939453 -14.66845703 22.45141602 C-14.66007813 21.61803711 -14.65169922 20.7846582 -14.64306641 19.92602539 C-14.63855469 19.08104492 -14.63404297 18.23606445 -14.62939453 17.36547852 C-14.61762044 15.28146384 -14.59968531 13.19748562 -14.58056641 11.11352539 C-12.60056641 12.10352539 -12.60056641 12.10352539 -10.58056641 13.11352539 C-10.88994141 11.93790039 -10.88994141 11.93790039 -11.20556641 10.73852539 C-11.32931641 9.87227539 -11.45306641 9.00602539 -11.58056641 8.11352539 C-10.92056641 7.45352539 -10.26056641 6.79352539 -9.58056641 6.11352539 C-10.57056641 5.78352539 -11.56056641 5.45352539 -12.58056641 5.11352539 C-9.83760922 -0.96016552 -6.11809185 -0.02607032 0 0 Z " fill="#0D2D65" transform="translate(16.58056640625,30.886474609375)"/>
<path d="M0 0 C4.45660217 4.45660217 4.45660217 4.45660217 4.53497362 9.41822243 C4.52158929 10.49390008 4.52158929 10.49390008 4.50793457 11.59130859 C4.51417453 12.35961187 4.5204145 13.12791515 4.52684355 13.91950035 C4.54280919 16.49612413 4.53015583 19.07180656 4.51757812 21.6484375 C4.52299767 23.49473625 4.53011939 25.34103068 4.53881836 27.18731689 C4.55707455 32.20382512 4.54997469 37.22000479 4.53730202 42.23651886 C4.52718625 47.48239539 4.53656373 52.72824348 4.54284668 57.97412109 C4.55012723 66.78423115 4.54052466 75.59420716 4.52148438 84.40429688 C4.49971489 94.59499797 4.50676597 104.78537898 4.52879 114.97607231 C4.54693235 123.72012004 4.54950801 132.46407132 4.53903532 141.20813179 C4.53279399 146.43297702 4.53198234 151.65767172 4.54518127 156.88250732 C4.55672219 161.79424804 4.54874622 166.70557543 4.52560425 171.61727142 C4.52030775 173.42165185 4.52184698 175.22606696 4.53065491 177.03043365 C4.54155714 179.49032509 4.52791249 181.94888522 4.50793457 184.40869141 C4.51685746 185.12580984 4.52578034 185.84292828 4.53497362 186.58177757 C4.45409263 191.70227447 3.95301294 192.04698706 0 196 C0 131.32 0 66.64 0 0 Z " fill="#050303" transform="translate(251,35)"/>
<path d="M0 0 C0 0.99 0 1.98 0 3 C-4.815864 5.49946269 -9.37360368 5.27977692 -14.66117859 5.25396729 C-16.1294236 5.25864726 -16.1294236 5.25864726 -17.62733012 5.26342177 C-20.91006178 5.2714047 -24.19260874 5.26507696 -27.4753418 5.25878906 C-29.82748523 5.26149874 -32.17962782 5.26505953 -34.5317688 5.26940918 C-40.92192019 5.27853672 -47.3120071 5.27498778 -53.70215964 5.26865101 C-59.70442582 5.26410694 -65.70668604 5.26757183 -71.70895205 5.2705054 C-84.31762016 5.27620753 -96.92625918 5.26965195 -109.53492252 5.25890467 C-120.36061719 5.24996305 -131.18626899 5.25152644 -142.01196289 5.26074219 C-154.58008191 5.2714362 -167.14817547 5.27566476 -179.7162984 5.26951766 C-186.37072199 5.26635151 -193.02511984 5.2660016 -199.67954063 5.27259064 C-205.93149267 5.2783487 -212.18336334 5.27439555 -218.43530655 5.26280212 C-220.7355886 5.26014761 -223.03587745 5.26093401 -225.33615685 5.26532745 C-228.46412254 5.27075302 -231.59182372 5.26398539 -234.71977234 5.25396729 C-236.10082288 5.26065945 -236.10082288 5.26065945 -237.50977343 5.26748681 C-243.77169949 5.22830051 -243.77169949 5.22830051 -246 3 C-232.20224477 2.11629014 -218.47444749 1.87084513 -204.65112305 1.91821289 C-202.48074413 1.92177893 -200.31036437 1.92486217 -198.13998413 1.92750549 C-193.50871964 1.93399881 -188.8774753 1.94351871 -184.24622154 1.95540047 C-176.92137971 1.973845 -169.59654246 1.98333042 -162.27168274 1.99131775 C-141.45787476 2.01536145 -120.64409625 2.05149543 -99.83032227 2.09594727 C-88.30291114 2.12048756 -76.77551111 2.13785059 -65.24807769 2.14750665 C-57.96645313 2.15404338 -50.68492099 2.16958579 -43.4033283 2.19182408 C-38.88414628 2.20354495 -34.36498677 2.20692082 -29.84579086 2.20792198 C-27.75035136 2.21007056 -25.65491214 2.215666 -23.55949211 2.2249527 C-20.7008119 2.23713367 -17.8423867 2.23698739 -14.98368835 2.23377991 C-13.73949498 2.24354161 -13.73949498 2.24354161 -12.47016639 2.25350052 C-7.91739106 2.23360348 -4.2883961 1.73291103 0 0 Z " fill="#5C5C5C" transform="translate(250,229)"/>
<path d="M0 0 C0.66 1.32 1.32 2.64 2 4 C3.65 4 5.3 4 7 4 C6.67 4.66 6.34 5.32 6 6 C12.93 6 19.86 6 27 6 C26.505 5.01 26.505 5.01 26 4 C27.65 4 29.3 4 31 4 C31.66 2.68 32.32 1.36 33 0 C33.66 0.99 34.32 1.98 35 3 C37.05003955 4.19232613 37.05003955 4.19232613 39 5 C38.67 5.33 38.34 5.66 38 6 C45.92 6 53.84 6 62 6 C62.495 8.97 62.495 8.97 63 12 C62 13 62 13 59.49609375 13.09765625 C57.98208984 13.08025391 57.98208984 13.08025391 56.4375 13.0625 C55.42558594 13.05347656 54.41367188 13.04445313 53.37109375 13.03515625 C52.58863281 13.02355469 51.80617188 13.01195312 51 13 C51 14.32 51 15.64 51 17 C52.65 17 54.3 17 56 17 C56 17.99 56 18.98 56 20 C54.515 20.495 54.515 20.495 53 21 C53 22.65 53 24.3 53 26 C52.236875 25.62875 51.47375 25.2575 50.6875 24.875 C49.800625 24.58625 48.91375 24.2975 48 24 C47.01 24.66 46.02 25.32 45 26 C45.04125 25.236875 45.0825 24.47375 45.125 23.6875 C45.22080824 20.77281584 45.22080824 20.77281584 43 18 C44.32 17.67 45.64 17.34 47 17 C47.33 15.35 47.66 13.7 48 12 C47.15695313 12.09539063 46.31390625 12.19078125 45.4453125 12.2890625 C44.34960938 12.39992188 43.25390625 12.51078125 42.125 12.625 C40.48917969 12.79902344 40.48917969 12.79902344 38.8203125 12.9765625 C37.42425781 12.98816406 37.42425781 12.98816406 36 13 C35.34 12.34 34.68 11.68 34 11 C30.90073181 11.32198966 30.90073181 11.32198966 28 12 C28 11.34 28 10.68 28 10 C20.41 10 12.82 10 5 10 C4.67 10.99 4.34 11.98 4 13 C3.34 12.34 2.68 11.68 2 11 C0.01508358 11.26676204 0.01508358 11.26676204 -2 12 C-5.20015856 13.06671952 -6.88544294 12.94845472 -10.1875 12.5625 C-11.08855469 12.46066406 -11.98960938 12.35882813 -12.91796875 12.25390625 C-13.60503906 12.17011719 -14.29210938 12.08632813 -15 12 C-14.81171228 14.44480079 -14.81171228 14.44480079 -14 17 C-12.03241727 18.36020151 -12.03241727 18.36020151 -10 19 C-10.66 19.66 -11.32 20.32 -12 21 C-12.16687448 23.58354218 -12.16687448 23.58354218 -12 26 C-12.928125 25.835 -13.85625 25.67 -14.8125 25.5 C-17.95621353 24.92251612 -17.95621353 24.92251612 -21 25 C-20.79375 24.401875 -20.5875 23.80375 -20.375 23.1875 C-19.69328085 20.71549154 -19.69328085 20.71549154 -22 18 C-20.68 18 -19.36 18 -18 18 C-18.33 17.01 -18.66 16.02 -19 15 C-20.32 15 -21.64 15 -23 15 C-22.68783129 12.11243942 -22.46286623 10.46286623 -20.375 8.375 C-17.27425185 6.57983002 -14.81238934 6.49061947 -11.25 6.3125 C-10.07953125 6.24675781 -8.9090625 6.18101563 -7.703125 6.11328125 C-6.36507813 6.05720703 -6.36507813 6.05720703 -5 6 C-5.66 5.34 -6.32 4.68 -7 4 C-5.02 4 -3.04 4 -1 4 C-0.67 2.68 -0.34 1.36 0 0 Z " fill="#89A2BF" transform="translate(34,32)"/>
<path d="M0 0 C82.17 0 164.34 0 249 0 C249 6.6 249 13.2 249 20 C166.83 20 84.66 20 0 20 C0 13.4 0 6.8 0 0 Z M1 1 C1 6.94 1 12.88 1 19 C82.18 19 163.36 19 247 19 C247 13.06 247 7.12 247 1 C165.82 1 84.64 1 1 1 Z " fill="#D7C7D0" transform="translate(2,149)"/>
<path d="M0 0 C82.17 0 164.34 0 249 0 C249 0.66 249 1.32 249 2 C167.49 2.33 85.98 2.66 2 3 C1.67 8.61 1.34 14.22 1 20 C0.67 20 0.34 20 0 20 C0 13.4 0 6.8 0 0 Z " fill="#B82D42" transform="translate(2,169)"/>
<path d="M0 0 C1.27051065 3.89452981 1.13611922 7.79823125 1.12025452 11.8460083 C1.12110894 12.64163516 1.12196337 13.43726202 1.12284368 14.25699878 C1.12449207 16.92558712 1.11898757 19.59411275 1.11352539 22.26269531 C1.11324335 24.17459105 1.11340157 26.08648689 1.1139679 27.99838257 C1.11425523 33.1922044 1.10836878 38.38600321 1.10139394 43.57981968 C1.0951498 49.00639797 1.09455576 54.43297677 1.09336853 59.85955811 C1.09025835 70.1371437 1.08204916 80.41471868 1.07201904 90.6922996 C1.0608482 102.39228925 1.055345 114.0922794 1.05032361 125.79227304 C1.03986631 149.86152125 1.0222729 173.93076003 1 198 C-0.47661114 196.97685242 -0.47661114 196.97685242 -2 195 C-2.29252098 192.37767172 -2.40049021 189.99310137 -2.3742218 187.37036133 C-2.37819621 186.5858727 -2.38217061 185.80138407 -2.38626546 184.99312305 C-2.39591485 182.35590989 -2.38405459 179.71922964 -2.37231445 177.08203125 C-2.37474155 175.19485269 -2.37846007 173.30767542 -2.38337708 171.42050171 C-2.39280095 166.28834184 -2.38334806 161.15637218 -2.37004495 156.02422714 C-2.35874914 150.66043815 -2.3628365 145.29665879 -2.36479187 139.93286133 C-2.36567544 130.9242847 -2.35458132 121.91578323 -2.33618164 112.90722656 C-2.31501307 102.48314141 -2.31150377 92.05916641 -2.3177436 81.63506413 C-2.32343289 71.61894841 -2.31779673 61.60287159 -2.30657005 51.58676147 C-2.30191829 47.31887088 -2.30105271 43.05100402 -2.3031559 38.78311157 C-2.30503577 33.75986833 -2.29695814 28.73673763 -2.2810955 23.71352005 C-2.27684305 21.86679169 -2.27600852 20.02005194 -2.27878571 18.17332077 C-2.28199438 15.65863543 -2.27295907 13.14428914 -2.26069641 10.62963867 C-2.26447573 9.89336148 -2.26825506 9.15708429 -2.27214891 8.39849567 C-2.2401705 4.70873641 -2.10447022 3.15670533 0 0 Z " fill="#040102" transform="translate(2,34)"/>
<path d="M0 0 C0 17.82 0 35.64 0 54 C-2.31 54 -4.62 54 -7 54 C-8.18695418 51.62609164 -8.12075833 50.19755049 -8.11352539 47.55029297 C-8.11344986 46.62948944 -8.11337433 45.70868591 -8.11329651 44.75997925 C-8.10813522 43.76410797 -8.10297394 42.76823669 -8.09765625 41.7421875 C-8.0962413 40.72399933 -8.09482635 39.70581116 -8.09336853 38.6567688 C-8.087759 35.39614965 -8.07520488 32.13559849 -8.0625 28.875 C-8.05748623 26.66796974 -8.05292311 24.46093841 -8.04882812 22.25390625 C-8.03778648 16.83591419 -8.02103905 11.41796195 -8 6 C-6.02 6.99 -6.02 6.99 -4 8 C-4.33 6.02 -4.66 4.04 -5 2 C-1.125 0 -1.125 0 0 0 Z " fill="#092B62" transform="translate(10,64)"/>
<path d="M0 0 C81.51 0 163.02 0 247 0 C247 0.66 247 1.32 247 2 C245.7452547 1.99631283 244.4905094 1.99262566 243.19774151 1.98882675 C213.43208922 1.9022498 183.66646932 1.83626529 153.90072204 1.79573868 C150.23939715 1.79073568 146.57807253 1.78555841 142.91674805 1.78027344 C142.18782497 1.7792242 141.4589019 1.77817495 140.70789025 1.77709392 C128.89553187 1.75967485 117.08325112 1.72812894 105.27093884 1.69138882 C93.15606625 1.65402108 81.0412344 1.631773 68.92630655 1.62364602 C61.44692933 1.61814955 53.96777153 1.60077166 46.48846183 1.56833413 C40.75936543 1.54474854 35.03041053 1.54216959 29.30127525 1.54756927 C26.94657537 1.54646483 24.59186753 1.53845553 22.23721695 1.5231781 C19.03248257 1.50339742 15.82870169 1.50801753 12.62394714 1.51898193 C11.68329428 1.50733057 10.74264142 1.4956792 9.77348393 1.48367476 C4.82413188 1.37518157 4.82413188 1.37518157 0.8985033 4.03006363 C0.60199721 4.68014263 0.30549112 5.33022163 0 6 C0 4.02 0 2.04 0 0 Z " fill="#D96236" transform="translate(3,209)"/>
<path d="M0 0 C0.33 0 0.66 0 1 0 C1 6.93 1 13.86 1 21 C3.02125 20.835 5.0425 20.67 7.125 20.5 C17.05750511 19.78581188 27.01440806 19.94485748 36.96533203 20.03710938 C38.23231934 20.04548828 39.49930664 20.05386719 40.8046875 20.0625 C42.52147705 20.07990234 42.52147705 20.07990234 44.27294922 20.09765625 C46.96565397 20.19005552 46.96565397 20.19005552 49 19 C49.66 19.33 50.32 19.66 51 20 C55.13984414 20.2961408 59.2883062 20.27798092 63.4375 20.3125 C64.59572266 20.34150391 65.75394531 20.37050781 66.94726562 20.40039062 C68.05650391 20.40876953 69.16574219 20.41714844 70.30859375 20.42578125 C71.83697876 20.44765503 71.83697876 20.44765503 73.39624023 20.4699707 C76.15289638 20.24387618 76.15289638 20.24387618 77.85571289 17.97338867 C78.23332764 17.32217041 78.61094238 16.67095215 79 16 C78.01 15.505 78.01 15.505 77 15 C78.25 13.4375 78.25 13.4375 80 12 C82.1875 12.3125 82.1875 12.3125 84 13 C84 13.66 84 14.32 84 15 C84.99 15.495 84.99 15.495 86 16 C84.68 17.32 83.36 18.64 82 20 C108.4 20.33 134.8 20.66 162 21 C162 15.06 162 9.12 162 3 C162.33 3 162.66 3 163 3 C163 9.27 163 15.54 163 22 C109.21 22 55.42 22 0 22 C0 14.74 0 7.48 0 0 Z " fill="#18285C" transform="translate(2,127)"/>
<path d="M0 0 C10.56 0 21.12 0 32 0 C32 2.64 32 5.28 32 8 C22.43 8 12.86 8 3 8 C3.33 7.34 3.66 6.68 4 6 C2.68 5.67 1.36 5.34 0 5 C0 3.35 0 1.7 0 0 Z " fill="#113168" transform="translate(133,31)"/>
<path d="M0 0 C8.58 0 17.16 0 26 0 C26.33 1.98 26.66 3.96 27 6 C26 7 26 7 23.49609375 7.09765625 C21.98208984 7.08025391 21.98208984 7.08025391 20.4375 7.0625 C19.42558594 7.05347656 18.41367188 7.04445313 17.37109375 7.03515625 C16.19740234 7.01775391 16.19740234 7.01775391 15 7 C15 8.32 15 9.64 15 11 C16.65 11 18.3 11 20 11 C20 11.99 20 12.98 20 14 C19.01 14.33 18.02 14.66 17 15 C17 16.65 17 18.3 17 20 C16.236875 19.62875 15.47375 19.2575 14.6875 18.875 C13.800625 18.58625 12.91375 18.2975 12 18 C11.01 18.66 10.02 19.32 9 20 C9.04125 19.236875 9.0825 18.47375 9.125 17.6875 C9.22080824 14.77281584 9.22080824 14.77281584 7 12 C8.32 11.67 9.64 11.34 11 11 C11.33 9.35 11.66 7.7 12 6 C6.06 6.495 6.06 6.495 0 7 C-1 5 -1 5 0 0 Z " fill="#718EB2" transform="translate(70,38)"/>
<path d="M0 0 C0 0.99 0 1.98 0 3 C-1.76278003 4.76278003 -4.09407373 4.12248824 -6.44222361 4.12908131 C-7.22917327 4.12616847 -8.01612293 4.12325563 -8.82691956 4.12025452 C-9.65673511 4.12110894 -10.48655066 4.12196337 -11.34151214 4.12284368 C-14.14379319 4.12450103 -16.94601541 4.11897297 -19.74829102 4.11352539 C-21.74841307 4.11324355 -23.74853523 4.1134012 -25.74865723 4.1139679 C-31.19678035 4.11425598 -36.64488166 4.10835745 -42.0929997 4.10139394 C-47.77984842 4.09516226 -53.46669758 4.09455675 -59.15354919 4.09336853 C-69.93059959 4.09025466 -80.7076399 4.08204053 -91.48468584 4.07201904 C-103.75049607 4.06085962 -116.01630678 4.05534789 -128.28212082 4.05032361 C-153.52141949 4.03985796 -178.76070918 4.02225745 -204 4 C-204 3.67 -204 3.34 -204 3 C-202.98509176 2.99668985 -201.97018353 2.99337971 -200.92452049 2.98996925 C-176.23726068 2.90899943 -151.55006315 2.81669133 -126.86289024 2.71247292 C-114.92439431 2.66233672 -102.98590528 2.61589386 -91.04736328 2.578125 C-80.64255678 2.54519893 -70.23780368 2.50536422 -59.83305609 2.45720994 C-54.32309741 2.43195116 -48.81317412 2.41016796 -43.30317307 2.39665604 C-38.11742991 2.38383016 -32.93180818 2.36176987 -27.7461319 2.33261681 C-25.84262275 2.32354519 -23.93909406 2.31785176 -22.03556442 2.31578636 C-19.43636263 2.31246093 -16.8375045 2.29697575 -14.2383728 2.2784729 C-13.48544209 2.28040763 -12.73251137 2.28234237 -11.95676458 2.28433573 C-7.60152791 2.23799698 -4.05081685 1.60167054 0 0 Z " fill="#3C3C3C" transform="translate(250,229)"/>
<path d="M0 0 C10.23 0 20.46 0 31 0 C30.67 1.65 30.34 3.3 30 5 C28.68 5.33 27.36 5.66 26 6 C26.66 6.66 27.32 7.32 28 8 C20.08 8 12.16 8 4 8 C4.33 7.34 4.66 6.68 5 6 C3.68 5.67 2.36 5.34 1 5 C0.67 3.35 0.34 1.7 0 0 Z " fill="#0F2F66" transform="translate(100,31)"/>
<path d="M0 0 C0.33 1.98 0.66 3.96 1 6 C-2.20015856 7.06671952 -3.88544294 6.94845472 -7.1875 6.5625 C-8.08855469 6.46066406 -8.98960938 6.35882813 -9.91796875 6.25390625 C-10.60503906 6.17011719 -11.29210938 6.08632813 -12 6 C-11.81171228 8.44480079 -11.81171228 8.44480079 -11 11 C-9.03241727 12.36020151 -9.03241727 12.36020151 -7 13 C-7.66 13.66 -8.32 14.32 -9 15 C-9.16687448 17.58354218 -9.16687448 17.58354218 -9 20 C-9.928125 19.835 -10.85625 19.67 -11.8125 19.5 C-14.95621353 18.92251612 -14.95621353 18.92251612 -18 19 C-17.79375 18.401875 -17.5875 17.80375 -17.375 17.1875 C-16.69328085 14.71549154 -16.69328085 14.71549154 -19 12 C-17.68 12 -16.36 12 -15 12 C-15.33 11.01 -15.66 10.02 -16 9 C-17.32 9 -18.64 9 -20 9 C-19.68987032 6.13130043 -19.45800504 4.46584376 -17.40234375 2.375 C-14.16946831 0.52463878 -11.5158642 0.48519574 -7.8125 0.3125 C-6.56082031 0.24675781 -5.30914062 0.18101563 -4.01953125 0.11328125 C-1 0 -1 0 0 0 Z " fill="#5276A3" transform="translate(31,38)"/>
<path d="M0 0 C7.92 0 15.84 0 24 0 C24.33 1.32 24.66 2.64 25 4 C21.37 4 17.74 4 14 4 C14 5.32 14 6.64 14 8 C15.65 8 17.3 8 19 8 C19 8.66 19 9.32 19 10 C17.68 10.33 16.36 10.66 15 11 C15.33 12.98 15.66 14.96 16 17 C15.071875 16.814375 14.14375 16.62875 13.1875 16.4375 C9.98656229 15.75876119 9.98656229 15.75876119 7 17 C7.33 15.02 7.66 13.04 8 11 C7.01 10.67 6.02 10.34 5 10 C5 9.67 5 9.34 5 9 C6.65 9 8.3 9 10 9 C10 7.02 10 5.04 10 3 C6.37 3.33 2.74 3.66 -1 4 C-0.67 2.68 -0.34 1.36 0 0 Z " fill="#5476A1" transform="translate(104,41)"/>
<path d="M0 0 C0.02905924 3.7499837 0.04681874 7.49993837 0.0625 11.25 C0.07087891 12.31347656 0.07925781 13.37695312 0.08789062 14.47265625 C0.09111328 15.49746094 0.09433594 16.52226563 0.09765625 17.578125 C0.10289307 18.52075195 0.10812988 19.46337891 0.11352539 20.43457031 C0.00968082 22.78123437 -0.33293471 24.75644478 -1 27 C-2.98 27 -4.96 27 -7 27 C-7.92188461 24.23434618 -8.11785222 22.61716298 -8.09765625 19.76953125 C-8.09282227 18.56586914 -8.09282227 18.56586914 -8.08789062 17.33789062 C-8.07951172 16.50451172 -8.07113281 15.67113281 -8.0625 14.8125 C-8.05798828 13.96751953 -8.05347656 13.12253906 -8.04882812 12.25195312 C-8.03705403 10.16793845 -8.0191189 8.08396023 -8 6 C-6.02 6.99 -6.02 6.99 -4 8 C-4.33 6.02 -4.66 4.04 -5 2 C-1.125 0 -1.125 0 0 0 Z " fill="#082961" transform="translate(10,64)"/>
<path d="M0 0 C2.64 0 5.28 0 8 0 C8 5.94 8 11.88 8 18 C5.36 18 2.72 18 0 18 C0 12.06 0 6.12 0 0 Z " fill="#B30F31" transform="translate(243,51)"/>
<path d="M0 0 C28.38 0 56.76 0 86 0 C86 5.94 86 11.88 86 18 C80.06 18 74.12 18 68 18 C68 17.67 68 17.34 68 17 C73.61 17 79.22 17 85 17 C84.505 9.575 84.505 9.575 84 2 C56.28 1.67 28.56 1.34 0 1 C0 0.67 0 0.34 0 0 Z " fill="#B40F30" transform="translate(165,130)"/>
<path d="M0 0 C9.57 0 19.14 0 29 0 C29 3.63 29 7.26 29 11 C28.67 11 28.34 11 28 11 C28 8.36 28 5.72 28 3 C19.09 3 10.18 3 1 3 C1 3.99 1 4.98 1 6 C0.34 5.67 -0.32 5.34 -1 5 C-0.67 3.35 -0.34 1.7 0 0 Z " fill="#8CA3C0" transform="translate(136,39)"/>
<path d="M0 0 C0.66 0.33 1.32 0.66 2 1 C2 1.99 2 2.98 2 4 C3.98 4 5.96 4 8 4 C7.67 4.99 7.34 5.98 7 7 C6.01 7 5.02 7 4 7 C4.33 8.98 4.66 10.96 5 13 C4.2575 12.62875 3.515 12.2575 2.75 11.875 C0.05716353 10.70484137 0.05716353 10.70484137 -2.3125 11.875 C-3.1478125 12.431875 -3.1478125 12.431875 -4 13 C-4 11.02 -4 9.04 -4 7 C-4.66 6.67 -5.32 6.34 -6 6 C-6 5.34 -6 4.68 -6 4 C-4.35 4 -2.7 4 -1 4 C-0.67 2.68 -0.34 1.36 0 0 Z " fill="#D5DDE6" transform="translate(115,73)"/>
<path d="M0 0 C0.66 1.32 1.32 2.64 2 4 C3.65 4 5.3 4 7 4 C7 4.66 7 5.32 7 6 C6.01 6.495 6.01 6.495 5 7 C5 8.98 5 10.96 5 13 C4.0925 12.62875 3.185 12.2575 2.25 11.875 C-0.88097015 10.69640701 -0.88097015 10.69640701 -3.375 11.875 C-3.91125 12.24625 -4.4475 12.6175 -5 13 C-4.773125 12.071875 -4.54625 11.14375 -4.3125 10.1875 C-3.63680017 7.03173152 -3.63680017 7.03173152 -5.4375 5.125 C-5.953125 4.75375 -6.46875 4.3825 -7 4 C-5.02 4 -3.04 4 -1 4 C-0.67 2.68 -0.34 1.36 0 0 Z " fill="#D7DFE8" transform="translate(34,87)"/>
<path d="M0 0 C0.66 0.33 1.32 0.66 2 1 C2.33 1.99 2.66 2.98 3 4 C5.00016466 5.20882096 5.00016466 5.20882096 7 6 C6.01 7.485 6.01 7.485 5 9 C4.36707617 11.11280345 4.36707617 11.11280345 4 13 C3.236875 12.79375 2.47375 12.5875 1.6875 12.375 C-1.21885944 11.66608797 -1.21885944 11.66608797 -4 14 C-3.67 12.02 -3.34 10.04 -3 8 C-3.99 7.34 -4.98 6.68 -6 6 C-6 5.34 -6 4.68 -6 4 C-4.35 4 -2.7 4 -1 4 C-0.67 2.68 -0.34 1.36 0 0 Z " fill="#D7DEE7" transform="translate(66,59)"/>
<path d="M0 0 C0.66 0 1.32 0 2 0 C2 1.32 2 2.64 2 4 C3.98 4 5.96 4 8 4 C8 4.66 8 5.32 8 6 C6.68 6.33 5.36 6.66 4 7 C4.33 8.98 4.66 10.96 5 13 C4.2575 12.62875 3.515 12.2575 2.75 11.875 C0.05716353 10.70484137 0.05716353 10.70484137 -2.3125 11.875 C-3.1478125 12.431875 -3.1478125 12.431875 -4 13 C-4 11.02 -4 9.04 -4 7 C-4.66 6.67 -5.32 6.34 -6 6 C-6 5.34 -6 4.68 -6 4 C-4.02 4 -2.04 4 0 4 C0 2.68 0 1.36 0 0 Z " fill="#D6DEE6" transform="translate(17,73)"/>
<path d="M0 0 C0.66 0 1.32 0 2 0 C2.33 0.99 2.66 1.98 3 3 C4.65 3.33 6.3 3.66 8 4 C7.01 5.485 7.01 5.485 6 7 C5.34 7 4.68 7 4 7 C4.33 8.65 4.66 10.3 5 12 C3.88625 11.690625 3.88625 11.690625 2.75 11.375 C-0.32330841 10.95591249 -1.42786866 11.38050989 -4 13 C-3.95875 12.071875 -3.9175 11.14375 -3.875 10.1875 C-3.72863661 6.84190281 -3.72863661 6.84190281 -6 4 C-4.35 3.67 -2.7 3.34 -1 3 C-0.67 2.01 -0.34 1.02 0 0 Z " fill="#D9E1E9" transform="translate(131,87)"/>
<path d="M0 0 C0.66 0.33 1.32 0.66 2 1 C2 1.99 2 2.98 2 4 C3.98 4 5.96 4 8 4 C7.505 4.37125 7.01 4.7425 6.5 5.125 C4.40244486 7.74694393 4.78256165 9.73842472 5 13 C4.2575 12.62875 3.515 12.2575 2.75 11.875 C0.05716353 10.70484137 0.05716353 10.70484137 -2.3125 11.875 C-3.1478125 12.431875 -3.1478125 12.431875 -4 13 C-3.95875 12.071875 -3.9175 11.14375 -3.875 10.1875 C-3.72863661 6.84190281 -3.72863661 6.84190281 -6 4 C-4.35 4 -2.7 4 -1 4 C-0.67 2.68 -0.34 1.36 0 0 Z " fill="#DAE2EA" transform="translate(66,87)"/>
<path d="M0 0 C0.66 0 1.32 0 2 0 C2.33 1.32 2.66 2.64 3 4 C4.65 4 6.3 4 8 4 C8 4.66 8 5.32 8 6 C7.01 6.495 7.01 6.495 6 7 C5.34444881 9.52733235 5.34444881 9.52733235 5 12 C4.236875 11.79375 3.47375 11.5875 2.6875 11.375 C-0.21885944 10.66608797 -0.21885944 10.66608797 -3 13 C-2.67 11.02 -2.34 9.04 -2 7 C-3.32 6.67 -4.64 6.34 -6 6 C-6 5.34 -6 4.68 -6 4 C-4.02 4 -2.04 4 0 4 C0 2.68 0 1.36 0 0 Z " fill="#D9DFE8" transform="translate(147,73)"/>
<path d="M0 0 C0.391875 0.474375 0.78375 0.94875 1.1875 1.4375 C3.40808374 3.35179633 5.13375709 3.61266988 8 4 C7.505 4.391875 7.01 4.78375 6.5 5.1875 C4.54406857 7.55091715 4.75792027 9.01435003 5 12 C3.88625 11.690625 3.88625 11.690625 2.75 11.375 C-0.32330841 10.95591249 -1.42786866 11.38050989 -4 13 C-3.95875 12.071875 -3.9175 11.14375 -3.875 10.1875 C-3.72863661 6.84190281 -3.72863661 6.84190281 -6 4 C-4.35 4 -2.7 4 -1 4 C-0.67 2.68 -0.34 1.36 0 0 Z " fill="#D7DEE6" transform="translate(17,101)"/>
<path d="M0 0 C0.66 0 1.32 0 2 0 C2.33 0.99 2.66 1.98 3 3 C4.65 3.33 6.3 3.66 8 4 C8 4.66 8 5.32 8 6 C6.68 6.33 5.36 6.66 4 7 C4.33 8.98 4.66 10.96 5 13 C4.236875 12.62875 3.47375 12.2575 2.6875 11.875 C1.800625 11.58625 0.91375 11.2975 0 11 C-0.99 11.66 -1.98 12.32 -3 13 C-2.67 11.02 -2.34 9.04 -2 7 C-3.32 6.67 -4.64 6.34 -6 6 C-6 5.34 -6 4.68 -6 4 C-4.35 3.67 -2.7 3.34 -1 3 C-0.67 2.01 -0.34 1.02 0 0 Z " fill="#DAE1E9" transform="translate(82,73)"/>
<path d="M0 0 C0.66 0.33 1.32 0.66 2 1 C2 1.99 2 2.98 2 4 C3.98 4 5.96 4 8 4 C7.505 4.37125 7.01 4.7425 6.5 5.125 C4.40244486 7.74694393 4.78256165 9.73842472 5 13 C4.01 12.34 3.02 11.68 2 11 C1.01 11 0.02 11 -1 11 C-1.33 11.66 -1.66 12.32 -2 13 C-2.66 13 -3.32 13 -4 13 C-4 11.02 -4 9.04 -4 7 C-4.66 6.67 -5.32 6.34 -6 6 C-6 5.34 -6 4.68 -6 4 C-4.35 3.67 -2.7 3.34 -1 3 C-0.67 2.01 -0.34 1.02 0 0 Z " fill="#D7DFE6" transform="translate(115,101)"/>
<path d="M0 0 C0.66 0 1.32 0 2 0 C2.33 1.32 2.66 2.64 3 4 C4.65 4 6.3 4 8 4 C7.01 5.485 7.01 5.485 6 7 C5.83300768 10.12521833 5.83300768 10.12521833 6 13 C5.01 12.34 4.02 11.68 3 11 C-0.14221967 11.31506627 -0.14221967 11.31506627 -3 12 C-2.95875 11.236875 -2.9175 10.47375 -2.875 9.6875 C-2.77919176 6.77281584 -2.77919176 6.77281584 -5 4 C-3.35 4 -1.7 4 0 4 C0 2.68 0 1.36 0 0 Z " fill="#DBE1E9" transform="translate(49,129)"/>
<path d="M0 0 C0.66 0.33 1.32 0.66 2 1 C2 2.32 2 3.64 2 5 C3.65 5 5.3 5 7 5 C6.01 6.485 6.01 6.485 5 8 C4.83286431 10.62531524 4.83286431 10.62531524 5 13 C3.6078125 12.690625 3.6078125 12.690625 2.1875 12.375 C-1.15173402 11.63307034 -1.15173402 11.63307034 -4 14 C-3.95875 13.071875 -3.9175 12.14375 -3.875 11.1875 C-3.72863661 7.84190281 -3.72863661 7.84190281 -6 5 C-4.35 4.67 -2.7 4.34 -1 4 C-0.67 2.68 -0.34 1.36 0 0 Z " fill="#DCE4EB" transform="translate(115,128)"/>
<path d="M0 0 C0.66 0 1.32 0 2 0 C2.33 1.32 2.66 2.64 3 4 C4.65 4 6.3 4 8 4 C7.67 4.66 7.34 5.32 7 6 C6.34 6 5.68 6 5 6 C5.33 8.31 5.66 10.62 6 13 C5.01 12.34 4.02 11.68 3 11 C-0.14221967 11.31506627 -0.14221967 11.31506627 -3 12 C-2.938125 11.236875 -2.87625 10.47375 -2.8125 9.6875 C-2.74101915 6.95474688 -2.74101915 6.95474688 -4.5 5.1875 C-4.995 4.795625 -5.49 4.40375 -6 4 C-4.02 4 -2.04 4 0 4 C0 2.68 0 1.36 0 0 Z " fill="#DDE4ED" transform="translate(33,115)"/>
<path d="M0 0 C0.66 0 1.32 0 2 0 C2.33 1.32 2.66 2.64 3 4 C4.65 4 6.3 4 8 4 C8 4.66 8 5.32 8 6 C7.01 6.495 7.01 6.495 6 7 C5.34444881 9.52733235 5.34444881 9.52733235 5 12 C4.236875 11.79375 3.47375 11.5875 2.6875 11.375 C-0.21885944 10.66608797 -0.21885944 10.66608797 -3 13 C-3 11.02 -3 9.04 -3 7 C-3.66 6.67 -4.32 6.34 -5 6 C-5 5.34 -5 4.68 -5 4 C-3.35 4 -1.7 4 0 4 C0 2.68 0 1.36 0 0 Z " fill="#DCE2E9" transform="translate(49,101)"/>
<path d="M0 0 C0.66 0.99 1.32 1.98 2 3 C4.56282742 3.72965366 4.56282742 3.72965366 7 4 C6.01 5.485 6.01 5.485 5 7 C4.83300768 10.12521833 4.83300768 10.12521833 5 13 C4.071875 12.62875 3.14375 12.2575 2.1875 11.875 C1.135625 11.58625 0.08375 11.2975 -1 11 C-1.99 11.66 -2.98 12.32 -4 13 C-3.9071875 11.6078125 -3.9071875 11.6078125 -3.8125 10.1875 C-3.69105736 7.01604897 -3.69105736 7.01604897 -5.5 5.125 C-5.995 4.75375 -6.49 4.3825 -7 4 C-5.02 4 -3.04 4 -1 4 C-0.67 2.68 -0.34 1.36 0 0 Z " fill="#E0E7EE" transform="translate(99,87)"/>
<path d="M0 0 C0.66 0 1.32 0 2 0 C2.12375 0.928125 2.12375 0.928125 2.25 1.875 C2.81258459 4.18437567 2.81258459 4.18437567 5.0625 5.25 C5.701875 5.4975 6.34125 5.745 7 6 C6.01 7.485 6.01 7.485 5 9 C4.36707617 11.11280345 4.36707617 11.11280345 4 13 C2.68 12.34 1.36 11.68 0 11 C-0.99 11.66 -1.98 12.32 -3 13 C-2.9071875 11.824375 -2.9071875 11.824375 -2.8125 10.625 C-2.874375 9.75875 -2.93625 8.8925 -3 8 C-3.99 7.34 -4.98 6.68 -6 6 C-6 5.34 -6 4.68 -6 4 C-4.35 3.67 -2.7 3.34 -1 3 C-0.67 2.01 -0.34 1.02 0 0 Z " fill="#DEE4EB" transform="translate(131,59)"/>
<path d="M0 0 C0.226875 0.639375 0.45375 1.27875 0.6875 1.9375 C1.85250896 4.27193661 1.85250896 4.27193661 4.625 4.75 C5.40875 4.8325 6.1925 4.915 7 5 C6.01 6.485 6.01 6.485 5 8 C4.83286431 10.62531524 4.83286431 10.62531524 5 13 C3.6078125 12.690625 3.6078125 12.690625 2.1875 12.375 C-1.15173402 11.63307034 -1.15173402 11.63307034 -4 14 C-3.95875 13.071875 -3.9175 12.14375 -3.875 11.1875 C-3.72863661 7.84190281 -3.72863661 7.84190281 -6 5 C-4.35 5 -2.7 5 -1 5 C-0.67 3.35 -0.34 1.7 0 0 Z " fill="#DDE5ED" transform="translate(99,114)"/>
<path d="M0 0 C0.66 0.33 1.32 0.66 2 1 C2 2.32 2 3.64 2 5 C3.65 5 5.3 5 7 5 C6.67 5.66 6.34 6.32 6 7 C5.34 7 4.68 7 4 7 C4.33 8.98 4.66 10.96 5 13 C3.6078125 12.7215625 3.6078125 12.7215625 2.1875 12.4375 C-1.01343771 11.75876119 -1.01343771 11.75876119 -4 13 C-3.67 11.02 -3.34 9.04 -3 7 C-3.99 6.67 -4.98 6.34 -6 6 C-6 5.67 -6 5.34 -6 5 C-4.35 5 -2.7 5 -1 5 C-0.67 3.35 -0.34 1.7 0 0 Z " fill="#E1E6EC" transform="translate(115,45)"/>
<path d="M0 0 C0.66 0 1.32 0 2 0 C2.33 1.32 2.66 2.64 3 4 C4.65 4.33 6.3 4.66 8 5 C7.505 5.391875 7.01 5.78375 6.5 6.1875 C4.54406857 8.55091715 4.75792027 10.01435003 5 13 C4.05125 12.814375 3.1025 12.62875 2.125 12.4375 C-0.89868793 11.71313368 -0.89868793 11.71313368 -3 13 C-2.938125 12.236875 -2.87625 11.47375 -2.8125 10.6875 C-2.74101915 7.95474688 -2.74101915 7.95474688 -4.5 6.1875 C-4.995 5.795625 -5.49 5.40375 -6 5 C-4.35 4.67 -2.7 4.34 -1 4 C-0.67 2.68 -0.34 1.36 0 0 Z " fill="#E0E7ED" transform="translate(17,128)"/>
<path d="M0 0 C0.66 0 1.32 0 2 0 C2 1.65 2 3.3 2 5 C3.98 5 5.96 5 8 5 C7.505 5.391875 7.01 5.78375 6.5 6.1875 C4.54406857 8.55091715 4.75792027 10.01435003 5 13 C4.236875 12.814375 3.47375 12.62875 2.6875 12.4375 C-0.08967375 11.77180827 -0.08967375 11.77180827 -3 13 C-2.938125 12.236875 -2.87625 11.47375 -2.8125 10.6875 C-2.74101915 7.95474688 -2.74101915 7.95474688 -4.5 6.1875 C-4.995 5.795625 -5.49 5.40375 -6 5 C-4.02 5 -2.04 5 0 5 C0 3.35 0 1.7 0 0 Z " fill="#DEE6EC" transform="translate(82,128)"/>
<path d="M0 0 C0.66 0 1.32 0 2 0 C2 1.32 2 2.64 2 4 C3.98 4 5.96 4 8 4 C7.01 5.485 7.01 5.485 6 7 C5.34 7 4.68 7 4 7 C4.33 8.65 4.66 10.3 5 12 C4.236875 11.814375 3.47375 11.62875 2.6875 11.4375 C-0.08967375 10.77180827 -0.08967375 10.77180827 -3 12 C-2.67 10.35 -2.34 8.7 -2 7 C-3.32 6.34 -4.64 5.68 -6 5 C-6 4.67 -6 4.34 -6 4 C-4.35 3.67 -2.7 3.34 -1 3 C-0.67 2.01 -0.34 1.02 0 0 Z " fill="#DFE5EB" transform="translate(82,101)"/>
<path d="M0 0 C0.66 0 1.32 0 2 0 C2.33 1.32 2.66 2.64 3 4 C4.65 4.33 6.3 4.66 8 5 C7.505 5.391875 7.01 5.78375 6.5 6.1875 C4.54406857 8.55091715 4.75792027 10.01435003 5 13 C4.236875 12.814375 3.47375 12.62875 2.6875 12.4375 C-0.08967375 11.77180827 -0.08967375 11.77180827 -3 13 C-2.95875 12.236875 -2.9175 11.47375 -2.875 10.6875 C-2.77919176 7.77281584 -2.77919176 7.77281584 -5 5 C-3.68 4.67 -2.36 4.34 -1 4 C-0.67 2.68 -0.34 1.36 0 0 Z " fill="#E0E7EC" transform="translate(147,128)"/>
<path d="M0 0 C0.66 0 1.32 0 2 0 C2.33 0.99 2.66 1.98 3 3 C4.65 3.33 6.3 3.66 8 4 C7.01 5.485 7.01 5.485 6 7 C5.34 7 4.68 7 4 7 C4.33 8.65 4.66 10.3 5 12 C4.236875 11.79375 3.47375 11.5875 2.6875 11.375 C-0.21885944 10.66608797 -0.21885944 10.66608797 -3 13 C-2.9071875 11.6078125 -2.9071875 11.6078125 -2.8125 10.1875 C-2.69105736 7.01604897 -2.69105736 7.01604897 -4.5 5.125 C-4.995 4.75375 -5.49 4.3825 -6 4 C-4.02 4 -2.04 4 0 4 C0 2.68 0 1.36 0 0 Z " fill="#DEE4EB" transform="translate(147,101)"/>
<path d="M0 0 C2 3 2 3 2 5 C3.65 5 5.3 5 7 5 C6.34 5.66 5.68 6.32 5 7 C4.83318891 10.08347826 4.83318891 10.08347826 5 13 C3.6078125 12.7215625 3.6078125 12.7215625 2.1875 12.4375 C-1.01343771 11.75876119 -1.01343771 11.75876119 -4 13 C-3.67 11.02 -3.34 9.04 -3 7 C-3.99 6.67 -4.98 6.34 -6 6 C-6 5.67 -6 5.34 -6 5 C-4.35 5 -2.7 5 -1 5 C-0.67 3.35 -0.34 1.7 0 0 Z " fill="#E1E7EE" transform="translate(99,59)"/>
<path d="M0 0 C2 2 2 2 2 5 C3.65 5 5.3 5 7 5 C6.67 5.66 6.34 6.32 6 7 C5.34 7 4.68 7 4 7 C4.33 8.98 4.66 10.96 5 13 C3.6078125 12.7215625 3.6078125 12.7215625 2.1875 12.4375 C-1.01343771 11.75876119 -1.01343771 11.75876119 -4 13 C-3.67 11.02 -3.34 9.04 -3 7 C-3.99 6.67 -4.98 6.34 -6 6 C-6 5.67 -6 5.34 -6 5 C-4.35 5 -2.7 5 -1 5 C-0.67 3.35 -0.34 1.7 0 0 Z " fill="#E3E7ED" transform="translate(50,45)"/>
<path d="M0 0 C0.66 0 1.32 0 2 0 C2.33 0.99 2.66 1.98 3 3 C4.65 3.33 6.3 3.66 8 4 C7.505 4.391875 7.01 4.78375 6.5 5.1875 C4.54406857 7.55091715 4.75792027 9.01435003 5 12 C4.236875 11.814375 3.47375 11.62875 2.6875 11.4375 C-0.08967375 10.77180827 -0.08967375 10.77180827 -3 12 C-2.938125 11.236875 -2.87625 10.47375 -2.8125 9.6875 C-2.74101915 6.95474688 -2.74101915 6.95474688 -4.5 5.1875 C-4.995 4.795625 -5.49 4.40375 -6 4 C-4.35 3.67 -2.7 3.34 -1 3 C-0.67 2.01 -0.34 1.02 0 0 Z " fill="#E2E9F0" transform="translate(131,115)"/>
<path d="M0 0 C0.66 1.32 1.32 2.64 2 4 C3.65 4 5.3 4 7 4 C7 4.66 7 5.32 7 6 C6.01 6.495 6.01 6.495 5 7 C4.34444881 9.52733235 4.34444881 9.52733235 4 12 C3.21625 11.814375 2.4325 11.62875 1.625 11.4375 C-0.97089775 10.74037734 -0.97089775 10.74037734 -3 12 C-3 10.35 -3 8.7 -3 7 C-3.99 6.67 -4.98 6.34 -6 6 C-6 5.34 -6 4.68 -6 4 C-4.35 4 -2.7 4 -1 4 C-0.67 2.68 -0.34 1.36 0 0 Z " fill="#E1E6ED" transform="translate(50,73)"/>
<path d="M0 0 C2 3 2 3 2 5 C3.65 5 5.3 5 7 5 C6.484375 5.391875 5.96875 5.78375 5.4375 6.1875 C4.7259375 7.0846875 4.7259375 7.0846875 4 8 C4.23043864 10.65466049 4.23043864 10.65466049 5 13 C3.6078125 12.7215625 3.6078125 12.7215625 2.1875 12.4375 C-1.01343771 11.75876119 -1.01343771 11.75876119 -4 13 C-3.95875 12.236875 -3.9175 11.47375 -3.875 10.6875 C-3.77919176 7.77281584 -3.77919176 7.77281584 -6 5 C-4.35 5 -2.7 5 -1 5 C-0.67 3.35 -0.34 1.7 0 0 Z " fill="#E7EBF0" transform="translate(148,45)"/>
<path d="M0 0 C2 2 2 2 2 5 C3.65 5 5.3 5 7 5 C6.67 5.66 6.34 6.32 6 7 C5.34 7 4.68 7 4 7 C4.33 8.98 4.66 10.96 5 13 C2.36 12.67 -0.28 12.34 -3 12 C-3 10.35 -3 8.7 -3 7 C-3.99 6.67 -4.98 6.34 -6 6 C-6 5.67 -6 5.34 -6 5 C-4.35 5 -2.7 5 -1 5 C-0.67 3.35 -0.34 1.7 0 0 Z " fill="#D9DFE6" transform="translate(99,31)"/>
<path d="M0 0 C0.66 0.33 1.32 0.66 2 1 C2 1.99 2 2.98 2 4 C3.65 4 5.3 4 7 4 C6.67 4.763125 6.34 5.52625 6 6.3125 C4.82563314 8.99069135 4.82563314 8.99069135 5 12 C4.05125 11.814375 3.1025 11.62875 2.125 11.4375 C-0.89868793 10.71313368 -0.89868793 10.71313368 -3 12 C-2.938125 11.236875 -2.87625 10.47375 -2.8125 9.6875 C-2.74101915 6.95474688 -2.74101915 6.95474688 -4.5 5.1875 C-4.995 4.795625 -5.49 4.40375 -6 4 C-4.35 4 -2.7 4 -1 4 C-0.67 2.68 -0.34 1.36 0 0 Z " fill="#E5EBF0" transform="translate(66,115)"/>
<path d="M0 0 C2 2 2 2 2 5 C3.32 5.33 4.64 5.66 6 6 C5.67 6.33 5.34 6.66 5 7 C4.95919217 8.99958364 4.95745644 11.00045254 5 13 C4.071875 12.62875 3.14375 12.2575 2.1875 11.875 C1.135625 11.58625 0.08375 11.2975 -1 11 C-1.99 11.66 -2.98 12.32 -4 13 C-3.95875 12.236875 -3.9175 11.47375 -3.875 10.6875 C-3.77919176 7.77281584 -3.77919176 7.77281584 -6 5 C-5.38125 4.9175 -4.7625 4.835 -4.125 4.75 C-1.81562433 4.18741541 -1.81562433 4.18741541 -0.75 1.9375 C-0.5025 1.298125 -0.255 0.65875 0 0 Z " fill="#E5EAF0" transform="translate(34,59)"/>
<path d="M0 0 C0.66 0 1.32 0 2 0 C2.0825 0.61875 2.165 1.2375 2.25 1.875 C2.81258459 4.18437567 2.81258459 4.18437567 5.0625 5.25 C5.701875 5.4975 6.34125 5.745 7 6 C6.34 6.66 5.68 7.32 5 8 C4.83312552 10.58354218 4.83312552 10.58354218 5 13 C4.071875 12.835 3.14375 12.67 2.1875 12.5 C-0.95621353 11.92251612 -0.95621353 11.92251612 -4 12 C-3.79375 11.401875 -3.5875 10.80375 -3.375 10.1875 C-2.69328085 7.71549154 -2.69328085 7.71549154 -5 5 C-3.68 5 -2.36 5 -1 5 C-0.67 3.35 -0.34 1.7 0 0 Z " fill="#E7EBF0" transform="translate(17,45)"/>
<path d="M0 0 C7.59 0 15.18 0 23 0 C23 0.66 23 1.32 23 2 C23.66 2.33 24.32 2.66 25 3 C21.04 3 17.08 3 13 3 C12.67 3.66 12.34 4.32 12 5 C11.01 5.495 11.01 5.495 10 6 C10 5.01 10 4.02 10 3 C9.36191406 2.95101562 8.72382812 2.90203125 8.06640625 2.8515625 C7.24011719 2.77679688 6.41382813 2.70203125 5.5625 2.625 C4.73878906 2.55539063 3.91507813 2.48578125 3.06640625 2.4140625 C2.38449219 2.27742188 1.70257813 2.14078125 1 2 C0.67 1.34 0.34 0.68 0 0 Z " fill="#466C9B" transform="translate(39,42)"/>
<path d="M0 0 C0.4125 0.45375 0.825 0.9075 1.25 1.375 C3.06408095 3.05950374 4.75285627 3.99265971 7 5 C6.01 5.33 5.02 5.66 4 6 C4 7.65 4 9.3 4 11 C1.33333333 11 -1.33333333 11 -4 11 C-3.67 9.35 -3.34 7.7 -3 6 C-3.99 5.67 -4.98 5.34 -6 5 C-6 4.67 -6 4.34 -6 4 C-4.35 4 -2.7 4 -1 4 C-0.67 2.68 -0.34 1.36 0 0 Z " fill="#DAE1E8" transform="translate(66,32)"/>
<path d="M0 0 C0.66 1.32 1.32 2.64 2 4 C3.65 4 5.3 4 7 4 C6.67 4.66 6.34 5.32 6 6 C5.34 6 4.68 6 4 6 C4 7.98 4 9.96 4 12 C1.69 11.67 -0.62 11.34 -3 11 C-3 9.35 -3 7.7 -3 6 C-4.32 5.34 -5.64 4.68 -7 4 C-5.02 4 -3.04 4 -1 4 C-0.67 2.68 -0.34 1.36 0 0 Z " fill="#E4E9EE" transform="translate(34,32)"/>
<path d="M0 0 C0.66 0 1.32 0 2 0 C2 1.65 2 3.3 2 5 C3.65 5 5.3 5 7 5 C6.690625 5.763125 6.38125 6.52625 6.0625 7.3125 C5.32106407 9.18789677 4.63771783 11.08684652 4 13 C2.68 12.34 1.36 11.68 0 11 C-0.99 11.66 -1.98 12.32 -3 13 C-2.95875 12.236875 -2.9175 11.47375 -2.875 10.6875 C-2.77919176 7.77281584 -2.77919176 7.77281584 -5 5 C-3.68 4.67 -2.36 4.34 -1 4 C-0.67 2.68 -0.34 1.36 0 0 Z " fill="#F2F5F7" transform="translate(82,45)"/>
<path d="M0 0 C8.91 0 17.82 0 27 0 C27 0.66 27 1.32 27 2 C22.38 2 17.76 2 13 2 C12.67 3.32 12.34 4.64 12 6 C11.34 4.68 10.68 3.36 10 2 C7.03 2 4.06 2 1 2 C0.67 1.34 0.34 0.68 0 0 Z " fill="#4B709E" transform="translate(137,42)"/>
<path d="M0 0 C0 0.99 0 1.98 0 3 C-1 4 -1 4 -4.96899414 4.11352539 C-6.74105607 4.1133662 -8.5131226 4.10766785 -10.28515625 4.09765625 C-11.21597519 4.0962413 -12.14679413 4.09482635 -13.1058197 4.09336853 C-16.09141191 4.08775172 -19.07693029 4.0751964 -22.0625 4.0625 C-24.08137913 4.05748716 -26.10025943 4.05292388 -28.11914062 4.04882812 C-33.07945572 4.03777683 -38.03971532 4.02050095 -43 4 C-43 3.67 -43 3.34 -43 3 C-41.91058105 2.98018066 -40.82116211 2.96036133 -39.69873047 2.93994141 C-35.63942167 2.86360942 -31.58045847 2.77493539 -27.52148438 2.68261719 C-25.76797329 2.64444112 -24.01438692 2.60956876 -22.26074219 2.578125 C-19.73345114 2.53222641 -17.20667322 2.4742743 -14.6796875 2.4140625 C-13.90132538 2.40251129 -13.12296326 2.39096008 -12.3210144 2.37905884 C-7.85450206 2.25917979 -4.21040235 1.66893556 0 0 Z " fill="#343434" transform="translate(250,229)"/>
<path d="M0 0 C0.33 1.98 0.66 3.96 1 6 C0.34 6 -0.32 6 -1 6 C-1 5.34 -1 4.68 -1 4 C-5.95 4 -10.9 4 -16 4 C-15.67 3.01 -15.34 2.02 -15 1 C-12.68753088 0.83290546 -10.37502385 0.66633538 -8.0625 0.5 C-6.77472656 0.4071875 -5.48695312 0.314375 -4.16015625 0.21875 C-1 0 -1 0 0 0 Z " fill="#8DA5C1" transform="translate(31,38)"/>
<path d="M0 0 C0.66 0 1.32 0 2 0 C2 6.27 2 12.54 2 19 C-0.31 19 -2.62 19 -5 19 C-5 18.67 -5 18.34 -5 18 C-3.35 18 -1.7 18 0 18 C-0.08378906 16.86820313 -0.16757813 15.73640625 -0.25390625 14.5703125 C-0.35706608 13.08856219 -0.45991453 11.60679018 -0.5625 10.125 C-0.61857422 9.37863281 -0.67464844 8.63226563 -0.73242188 7.86328125 C-1.11328125 2.2265625 -1.11328125 2.2265625 0 0 Z " fill="#E8E5E5" transform="translate(249,150)"/>
<path d="M0 0 C1.65 0 3.3 0 5 0 C5 6.27 5 12.54 5 19 C4.01 18.67 3.02 18.34 2 18 C2 12.39 2 6.78 2 1 C1.34 0.67 0.68 0.34 0 0 Z " fill="#E9E9E9" transform="translate(246,110)"/>
<path d="M0 0 C2.1875 0.3125 2.1875 0.3125 4 1 C4 1.66 4 2.32 4 3 C4.66 3.33 5.32 3.66 6 4 C1.69230769 8.92307692 1.69230769 8.92307692 -1.8125 9.3125 C-2.534375 9.209375 -3.25625 9.10625 -4 9 C-3.01 7.35 -2.02 5.7 -1 4 C-1.66 3.67 -2.32 3.34 -3 3 C-1.75 1.4375 -1.75 1.4375 0 0 Z " fill="#123470" transform="translate(82,139)"/>
<path d="M0 0 C0.33 0.99 0.66 1.98 1 3 C2.98 3 4.96 3 7 3 C6.2575 3.556875 6.2575 3.556875 5.5 4.125 C3.40244486 6.74694393 3.78256165 8.73842472 4 12 C2.68 11.34 1.36 10.68 0 10 C0 6.7 0 3.4 0 0 Z " fill="#ADB7BF" transform="translate(2,88)"/>
<path d="M0 0 C1.98 0 3.96 0 6 0 C5.01 0.66 4.02 1.32 3 2 C3.33 2.61875 3.66 3.2375 4 3.875 C5 6 5 6 5 8 C5.33 8.66 5.66 9.32 6 10 C4.68 10 3.36 10 2 10 C-0.4294516 6.3558226 -0.16179575 4.28758728 0 0 Z " fill="#335989" transform="translate(10,49)"/>
<path d="M0 0 C4.62 0 9.24 0 14 0 C14 0.33 14 0.66 14 1 C13.04287109 1.07347656 13.04287109 1.07347656 12.06640625 1.1484375 C11.24011719 1.22320312 10.41382813 1.29796875 9.5625 1.375 C8.73878906 1.44460937 7.91507813 1.51421875 7.06640625 1.5859375 C6.38449219 1.72257812 5.70257813 1.85921875 5 2 C4.67 2.66 4.34 3.32 4 4 C4.66 4.33 5.32 4.66 6 5 C5.67 5.66 5.34 6.32 5 7 C3.35 6.67 1.7 6.34 0 6 C0 4.02 0 2.04 0 0 Z " fill="#2C568C" transform="translate(150,44)"/>
<path d="M0 0 C2.475 0.495 2.475 0.495 5 1 C4.44271087 4.34373475 3.64826111 7.03312999 2 10 C1.67 10 1.34 10 1 10 C0.67 6.7 0.34 3.4 0 0 Z " fill="#123C77" transform="translate(9,79)"/>
<path d="M0 0 C1.98 0 3.96 0 6 0 C4.02 0.99 4.02 0.99 2 2 C2.66 2.33 3.32 2.66 4 3 C3.67 4.98 3.34 6.96 3 9 C3.66 9.33 4.32 9.66 5 10 C3.68 10 2.36 10 1 10 C0.37542727 6.56484998 0 3.50935186 0 0 Z " fill="#315689" transform="translate(108,49)"/>
<path d="M0 0 C0.33 0.99 0.66 1.98 1 3 C2.65 3 4.3 3 6 3 C5.01 4.485 5.01 4.485 4 6 C3.83286431 8.62531524 3.83286431 8.62531524 4 11 C2.68 10.34 1.36 9.68 0 9 C0 6.03 0 3.06 0 0 Z " fill="#B8BFC6" transform="translate(2,116)"/>
<path d="M0 0 C2.99693138 0.99897713 4.02709413 1.65130253 6 4 C6 4.66 6 5.32 6 6 C4.35 6.33 2.7 6.66 1 7 C0.34 5.02 -0.32 3.04 -1 1 C-0.67 0.67 -0.34 0.34 0 0 Z " fill="#143570" transform="translate(71,121)"/>
<path d="M0 0 C0.33 1.65 0.66 3.3 1 5 C-1.64 5.33 -4.28 5.66 -7 6 C-6.1875 3.5625 -6.1875 3.5625 -5 1 C-2 0 -2 0 0 0 Z " fill="#123371" transform="translate(113,99)"/>
<path d="M0 0 C0.66 1.32 1.32 2.64 2 4 C1.01 4.495 1.01 4.495 0 5 C0 6.32 0 7.64 0 9 C-1.32 9.33 -2.64 9.66 -4 10 C-4 7.69 -4 5.38 -4 3 C-2.68 2.67 -1.36 2.34 0 2 C0 1.34 0 0.68 0 0 Z " fill="#2A5186" transform="translate(123,49)"/>
<path d="M0 0 C2.31 0.66 4.62 1.32 7 2 C7 2.66 7 3.32 7 4 C2.56923077 6.09230769 2.56923077 6.09230769 -0.3125 5.625 C-0.869375 5.41875 -1.42625 5.2125 -2 5 C-1.34 4.34 -0.68 3.68 0 3 C0 2.01 0 1.02 0 0 Z " fill="#294B80" transform="translate(98,97)"/>
<path d="M0 0 C0.33 0.66 0.66 1.32 1 2 C1.66 2 2.32 2 3 2 C2 4 2 4 0 7 C-2.625 7.1875 -2.625 7.1875 -5 7 C-5.33 7.66 -5.66 8.32 -6 9 C-6 6 -6 6 -4.125 3.8125 C-2 2 -2 2 0 2 C0 1.34 0 0.68 0 0 Z " fill="#2A4E86" transform="translate(114,70)"/>
<path d="M0 0 C0.33 0.66 0.66 1.32 1 2 C3.02463255 2.65213292 3.02463255 2.65213292 5 3 C4.34 3.66 3.68 4.32 3 5 C2.83312552 7.58354218 2.83312552 7.58354218 3 10 C1.68 9.34 0.36 8.68 -1 8 C-0.67 5.36 -0.34 2.72 0 0 Z " fill="#B9BFC6" transform="translate(3,34)"/>
<path d="M0 0 C0.66 1.32 1.32 2.64 2 4 C3.32 3.67 4.64 3.34 6 3 C6.33 3.66 6.66 4.32 7 5 C3.93882432 7.62386487 3.26826873 8 -1 8 C-0.67 5.36 -0.34 2.72 0 0 Z " fill="#46648F" transform="translate(46,80)"/>
<path d="M0 0 C1.98 0 3.96 0 6 0 C6.33 0.66 6.66 1.32 7 2 C6.22265625 4.1640625 6.22265625 4.1640625 5.0625 6.625 C4.68222656 7.44226563 4.30195312 8.25953125 3.91015625 9.1015625 C3.60980469 9.72804688 3.30945313 10.35453125 3 11 C2.34 10.67 1.68 10.34 1 10 C1 8.02 1 6.04 1 4 C1.99 3.67 2.98 3.34 4 3 C4.33 2.34 4.66 1.68 5 1 C3.35 1 1.7 1 0 1 C0 0.67 0 0.34 0 0 Z " fill="#294D81" transform="translate(118,76)"/>
<path d="M0 0 C1.98 0 3.96 0 6 0 C5.67 0.66 5.34 1.32 5 2 C4.34 2 3.68 2 3 2 C3.33 3.98 3.66 5.96 4 8 C2.68 7.34 1.36 6.68 0 6 C0 4.02 0 2.04 0 0 Z " fill="#BBC1C8" transform="translate(2,64)"/>
<path d="M0 0 C0.99 0.33 1.98 0.66 3 1 C2.6875 3.375 2.6875 3.375 2 6 C1.01 6.66 0.02 7.32 -1 8 C-1.04241723 5.66705225 -1.04092937 3.33297433 -1 1 C-0.67 0.67 -0.34 0.34 0 0 Z " fill="#0F3674" transform="translate(11,107)"/>
<path d="M0 0 C0.66 0.33 1.32 0.66 2 1 C1.67 2.65 1.34 4.3 1 6 C-1.97 5.505 -1.97 5.505 -5 5 C-5 4.01 -5 3.02 -5 2 C-2.625 0.9375 -2.625 0.9375 0 0 Z " fill="#F5F7F8" transform="translate(69,37)"/>
<path d="M0 0 C0.99 0.33 1.98 0.66 3 1 C3 2.32 3 3.64 3 5 C1.02 5 -0.96 5 -3 5 C-2.67 3.68 -2.34 2.36 -2 1 C-1.67 1.33 -1.34 1.66 -1 2 C-0.67 1.34 -0.34 0.68 0 0 Z " fill="#11336C" transform="translate(71,113)"/>
<path d="M0 0 C0.33 0 0.66 0 1 0 C1 2.31 1 4.62 1 7 C2.65 7 4.3 7 6 7 C5.67 7.99 5.34 8.98 5 10 C5 9.34 5 8.68 5 8 C3.35 8 1.7 8 0 8 C-0.12375 7.360625 -0.2475 6.72125 -0.375 6.0625 C-0.684375 5.0415625 -0.684375 5.0415625 -1 4 C-1.66 3.67 -2.32 3.34 -3 3 C-2.34 3 -1.68 3 -1 3 C-0.67 2.01 -0.34 1.02 0 0 Z " fill="#2C4D86" transform="translate(150,69)"/>
<path d="M0 0 C1.9375 0.875 1.9375 0.875 3.9375 3.875 C3.174375 3.648125 2.41125 3.42125 1.625 3.1875 C0.738125 3.084375 -0.14875 2.98125 -1.0625 2.875 C-2.8979799 4.20878575 -2.8979799 4.20878575 -4.0625 5.875 C-4.3925 4.885 -4.7225 3.895 -5.0625 2.875 C-2.63475434 -0.15968208 -2.63475434 -0.15968208 0 0 Z " fill="#16346C" transform="translate(51.0625,139.125)"/>
<path d="M0 0 C0.99 0.33 1.98 0.66 3 1 C3 2.65 3 4.3 3 6 C3.66 6.33 4.32 6.66 5 7 C3.68 7.33 2.36 7.66 1 8 C0.34 5.69 -0.32 3.38 -1 1 C-0.67 0.67 -0.34 0.34 0 0 Z " fill="#13336B" transform="translate(109,135)"/>
<path d="M0 0 C0.66 1.32 1.32 2.64 2 4 C1.01 4.495 1.01 4.495 0 5 C-1.13350534 7.01669827 -1.13350534 7.01669827 -2 9 C-2.33 6.69 -2.66 4.38 -3 2 C-2.01 1.34 -1.02 0.68 0 0 Z " fill="#2C4D7F" transform="translate(73,92)"/>
<path d="M0 0 C0.66 0 1.32 0 2 0 C1.46930939 3.82097239 0.50298434 6.06171403 -2 9 C-2.99 7.68 -3.98 6.36 -5 5 C-3.68 4.67 -2.36 4.34 -1 4 C-0.67 2.68 -0.34 1.36 0 0 Z " fill="#DCE3EA" transform="translate(82,45)"/>
<path d="M0 0 C0.33 0.99 0.66 1.98 1 3 C0.01 4.485 0.01 4.485 -1 6 C-1.33 6.99 -1.66 7.98 -2 9 C-4 6 -4 6 -3.625 3.8125 C-3.41875 3.214375 -3.2125 2.61625 -3 2 C-2.01 2 -1.02 2 0 2 C0 1.34 0 0.68 0 0 Z " fill="#0C2B62" transform="translate(9,119)"/>
<path d="M0 0 C2 2 2 2 2 6 C1.34 6 0.68 6 0 6 C0 6.66 0 7.32 0 8 C-0.99 8 -1.98 8 -3 8 C-1.125 1.125 -1.125 1.125 0 0 Z " fill="#2C4E83" transform="translate(137,65)"/>
<path d="M0 0 C0.33 1.32 0.66 2.64 1 4 C0.01 4.495 0.01 4.495 -1 5 C-0.67 3.35 -0.34 1.7 0 0 Z M-6 5 C-4.35 5 -2.7 5 -1 5 C-1.33 6.65 -1.66 8.3 -2 10 C-3.32 8.35 -4.64 6.7 -6 5 Z " fill="#DDE4EA" transform="translate(148,45)"/>
<path d="M0 0 C0.99 0 1.98 0 3 0 C2.67 2.31 2.34 4.62 2 7 C0.4375 5.75 0.4375 5.75 -1 4 C-0.6875 1.8125 -0.6875 1.8125 0 0 Z " fill="#1A3870" transform="translate(120,135)"/>
<path d="M0 0 C0.33 0.99 0.66 1.98 1 3 C2.32 2.67 3.64 2.34 5 2 C5 2.99 5 3.98 5 5 C3.02 5 1.04 5 -1 5 C-0.67 3.35 -0.34 1.7 0 0 Z " fill="#0C3D7C" transform="translate(11,71)"/>
<path d="M0 0 C1.98 0 3.96 0 6 0 C6.33 1.32 6.66 2.64 7 4 C5.68 4.33 4.36 4.66 3 5 C3 4.01 3 3.02 3 2 C2.01 1.34 1.02 0.68 0 0 Z " fill="#385E8D" transform="translate(20,49)"/>
<path d="M0 0 C2.97 0.495 2.97 0.495 6 1 C5.67 2.32 5.34 3.64 5 5 C3.35 4.67 1.7 4.34 0 4 C0 2.68 0 1.36 0 0 Z " fill="#315D8E" transform="translate(11,43)"/>
<path d="M0 0 C0.33 1.32 0.66 2.64 1 4 C-0.98 4.33 -2.96 4.66 -5 5 C-4.67 3.68 -4.34 2.36 -4 1 C-2.68 0.67 -1.36 0.34 0 0 Z " fill="#F6F8F9" transform="translate(101,38)"/>
<path d="M0 0 C0.99 0.33 1.98 0.66 3 1 C2.625 3.4375 2.625 3.4375 2 6 C1.01 6.495 1.01 6.495 0 7 C0 4.69 0 2.38 0 0 Z " fill="#173471" transform="translate(109,107)"/>
</svg>
