<?xml version="1.0" encoding="UTF-8"?>
<svg version="1.1" xmlns="http://www.w3.org/2000/svg" width="256" height="256">
<path d="M0 0 C81.84 0 163.68 0 248 0 C248.33 10.23 248.66 20.46 249 31 C249.99 32.32 250.98 33.64 252 35 C252.28849475 37.61125706 252.40530279 39.98181381 252.38095093 42.59130859 C252.3856309 43.35961187 252.39031087 44.12791515 252.39513266 44.91950035 C252.40710626 47.49598792 252.39761636 50.07194591 252.38818359 52.6484375 C252.39224825 54.49473379 252.39758953 56.34102765 252.40411377 58.18731689 C252.41780578 63.20377806 252.41248093 68.22005441 252.40297651 73.23651886 C252.3953897 78.4823914 252.4024228 83.72824794 252.40713501 88.97412109 C252.41259541 97.78420864 252.40539347 106.59422078 252.39111328 115.40429688 C252.37478624 125.59495016 252.38007455 135.78542339 252.3965925 145.97607231 C252.41019924 154.72010783 252.41213099 163.4640891 252.40427649 172.20813179 C252.39959551 177.43295366 252.39898679 182.65769086 252.40888596 187.88250732 C252.41754152 192.79418125 252.4115595 197.70562266 252.39420319 202.61727142 C252.3902308 204.4216549 252.3913852 206.2260579 252.39799118 208.03043365 C252.40616717 210.49011855 252.39593333 212.94905447 252.38095093 215.40869141 C252.38764309 216.12580984 252.39433526 216.84292828 252.40123022 217.58177757 C252.34716128 222.14584668 251.91314494 223.11580675 249 227 C248.67 233.93 248.34 240.86 248 248 C166.16 248 84.32 248 0 248 C-0.33 241.4 -0.66 234.8 -1 228 C-1.66 227.01 -2.32 226.02 -3 225 C-3.19324577 222.42067549 -3.26959718 219.94978104 -3.25396729 217.37036133 C-3.25708727 216.5858727 -3.26020725 215.80138407 -3.26342177 214.99312305 C-3.27141948 212.35601674 -3.26507127 209.71913941 -3.25878906 207.08203125 C-3.26149814 205.19485336 -3.2650586 203.30767653 -3.26940918 201.42050171 C-3.27854537 196.28838394 -3.27498386 191.15634636 -3.26865101 186.02422714 C-3.26359738 180.66043629 -3.26828068 175.29665244 -3.27142334 169.93286133 C-3.27506485 160.92430383 -3.27025905 151.91577909 -3.26074219 142.90722656 C-3.24985729 132.48314571 -3.25338274 122.05914308 -3.264395 111.63506413 C-3.27346262 102.69489655 -3.27475572 93.75475256 -3.26951766 84.81458187 C-3.26639507 79.47074539 -3.26599654 74.12694571 -3.27259064 68.78311157 C-3.27835584 63.75987703 -3.27438236 58.73674363 -3.26280212 53.71352005 C-3.26015111 51.86678867 -3.26092812 50.02004882 -3.26532745 48.17332077 C-3.27076697 45.65864403 -3.2639683 43.14429439 -3.25396729 40.62963867 C-3.25842873 39.89336148 -3.26289017 39.15708429 -3.26748681 38.39849567 C-3.23887948 34.70740301 -3.1053456 33.15801839 -1 30 C-0.67 20.1 -0.34 10.2 0 0 Z M6 26 C6 26.33 6 26.66 6 27 C83.88 27 161.76 27 242 27 C242 26.67 242 26.34 242 26 C164.12 26 86.24 26 6 26 Z " fill="#1010FD" transform="translate(3,4)"/>
<path d="M0 0 C81.84 0 163.68 0 248 0 C248 30.36 248 60.72 248 92 C165.83 92 83.66 92 -1 92 C-1 61.33152179 -0.90162417 30.65522189 0 0 Z M6 26 C6 26.33 6 26.66 6 27 C83.88 27 161.76 27 242 27 C242 26.67 242 26.34 242 26 C164.12 26 86.24 26 6 26 Z " fill="#FBFBFC" transform="translate(3,4)"/>
<path d="M0 0 C82.17 0 164.34 0 249 0 C249 59 249 59 245 64 C241.56364247 65.71817876 237.60862036 65.14015035 233.82693481 65.13371277 C232.86432987 65.13597833 231.90172493 65.13824388 230.90995014 65.14057809 C227.66407587 65.14694008 224.41824312 65.14608732 221.17236328 65.14526367 C218.85346421 65.1482538 216.53456564 65.15165598 214.21566772 65.15544128 C207.9016667 65.16430052 201.58767922 65.16662021 195.27367258 65.16725707 C190.01002256 65.16820463 184.74637573 65.17188116 179.48272693 65.17542917 C167.77792076 65.18311497 156.07312122 65.18609713 144.36831273 65.18542381 C143.66556348 65.18538386 142.96281422 65.1853439 142.23876953 65.18530273 C141.53516469 65.18526185 140.83155985 65.18522097 140.10663365 65.18517885 C128.7024962 65.18477236 117.29839177 65.19434181 105.89426388 65.2084411 C94.19177047 65.22279538 82.48929317 65.2297118 70.78679073 65.22884732 C64.21385464 65.22859184 57.64095589 65.23147051 51.0680275 65.24202538 C44.88752296 65.25167852 38.70709168 65.25180472 32.52658463 65.24450874 C30.25455621 65.24345942 27.9825233 65.24584627 25.71050262 65.2518692 C22.61592534 65.25954305 19.52160393 65.25497492 16.42703247 65.24723816 C15.06916018 65.2549535 15.06916018 65.2549535 13.68385613 65.26282471 C12.85504398 65.25822592 12.02623183 65.25362712 11.17230415 65.24888897 C10.4579952 65.24910634 9.74368624 65.24932371 9.00773156 65.24954766 C6.52895527 64.94145228 5.08011486 64.40019204 3 63 C-7.81665383 44.97224362 0 21.02379604 0 0 Z " fill="#FB491B" transform="translate(2,160)"/>
<path d="M0 0 C0.33 0.66 0.66 1.32 1 2 C81.52 2 162.04 2 245 2 C245.33 1.34 245.66 0.68 246 0 C246.66 0 247.32 0 248 0 C248 6.93 248 13.86 248 21 C166.16 21 84.32 21 0 21 C0 14.07 0 7.14 0 0 Z " fill="#FEFEFE" transform="translate(3,231)"/>
<path d="M0 0 C1.2024655 3.76575897 1.11730264 7.34869698 1.10679626 11.28086853 C1.10623956 12.01579783 1.10568285 12.75072712 1.10510927 13.507927 C1.10207244 15.97138264 1.09188854 18.43475732 1.08178711 20.89819336 C1.07823101 22.66404638 1.07514501 24.4299004 1.07249451 26.195755 C1.06594242 29.99896872 1.05638223 33.80215897 1.04459953 37.60536003 C1.02631863 43.61813217 1.01671095 49.63089858 1.00868225 55.64369202 C0.98452132 72.74189758 0.94863654 89.84006835 0.90405273 106.93823242 C0.87950747 116.38091939 0.86214385 125.82359273 0.85249335 135.26630694 C0.84594751 141.24443506 0.83038243 147.22245098 0.80817592 153.20054042 C0.79645052 156.9188222 0.79307879 160.63707662 0.79207802 164.35537529 C0.78992949 166.08033536 0.7843342 167.80529507 0.7750473 169.53023148 C0.76286327 171.88429945 0.76301323 174.23805781 0.76622009 176.59214783 C0.76307769 177.90972548 0.75993528 179.22730314 0.75669765 180.5848074 C0.99339584 183.90729852 1.31235963 186.13190157 3 189 C5.74013077 189.93901491 8.28333827 190.12759418 11.16392422 190.13701439 C11.99088627 190.14208893 12.81784833 190.14716347 13.66986984 190.15239179 C15.02467259 190.15313843 15.02467259 190.15313843 16.40684509 190.15390015 C17.37045332 190.1582824 18.33406155 190.16266465 19.32687002 190.1671797 C22.56418811 190.18056232 25.80147898 190.18674528 29.03881836 190.19287109 C31.35639062 190.20077223 33.67396164 190.20904118 35.99153137 190.21765137 C43.60762356 190.24386129 51.22372123 190.25917394 58.83984375 190.2734375 C61.4598192 190.27879684 64.0797946 190.28417434 66.69976997 190.28956985 C77.59357597 190.31119343 88.48737968 190.33008358 99.38120174 190.34119225 C102.20652712 190.34412189 105.03185245 190.34708357 107.85717773 190.35009766 C108.55938926 190.35084371 109.26160079 190.35158976 109.98509146 190.35235842 C121.36908867 190.36502134 132.75293004 190.39825969 144.13685434 190.43989949 C155.82472735 190.4823009 167.5125122 190.50547711 179.20046145 190.51111281 C185.76287794 190.51477286 192.32502989 190.52686465 198.88737297 190.55921555 C205.05733641 190.58919742 211.2268738 190.59564316 217.39689445 190.58383179 C219.66368189 190.58361025 221.93048855 190.59198084 224.1972084 190.60948563 C227.28738102 190.63205466 230.37599252 190.62393878 233.46617126 190.60800171 C234.36714238 190.6218838 235.26811349 190.63576588 236.19638675 190.65006864 C240.4268028 190.59615671 242.47262689 190.3561659 246.05591202 187.9361639 C248.43126497 184.34865877 248.70266125 181.58120004 248.63923645 177.41337585 C248.64759213 176.6577301 248.6559478 175.90208434 248.66455668 175.12354022 C248.68647444 172.59580482 248.67288427 170.06952403 248.65942383 167.54174805 C248.66787706 165.72821449 248.67852118 163.91469002 248.69119263 162.10118103 C248.7193654 157.18002009 248.71686266 152.25929463 248.70889878 147.33807731 C248.70577625 142.19437955 248.73080066 137.05082111 248.75285339 131.90718079 C248.79032535 122.1679314 248.80244326 112.42882166 248.8054778 102.68950731 C248.8101652 91.60126408 248.84307833 80.51316103 248.87837565 69.42497957 C248.95034894 46.61667003 248.98683313 23.80841392 249 1 C252.04712466 3.36124355 252.93268227 4.5404644 253.50057125 8.41708374 C253.52124763 9.80833841 253.51984014 11.20002508 253.50120544 12.59130859 C253.50950704 13.74376351 253.50950704 13.74376351 253.51797634 14.91950035 C253.53159889 17.49614095 253.51660551 20.07181556 253.50170898 22.6484375 C253.50549159 24.49473482 253.51099114 26.34102931 253.51808167 28.18731689 C253.5320612 33.20383787 253.52084895 38.22001682 253.50437045 43.23651886 C253.49053621 48.48238912 253.49697817 53.72823919 253.50050354 58.97412109 C253.50320695 67.78423586 253.4897188 76.5942145 253.46655273 85.40429688 C253.4399422 95.59495696 253.43819543 105.78538939 253.4499411 115.97607231 C253.46071438 125.77275383 253.45453534 135.56935287 253.44038582 145.36602783 C253.43462212 149.53820746 253.43471172 153.7103268 253.43945122 157.88250732 C253.44421797 162.79419446 253.43413179 167.70563181 253.41249657 172.61727142 C253.40692442 174.42165026 253.40646731 176.22605309 253.41144943 178.03043365 C253.41739003 180.49013158 253.40492119 182.94906265 253.38768005 185.40869141 C253.39669512 186.48436906 253.39669512 186.48436906 253.40589231 187.58177757 C253.36671597 190.64709643 253.13157879 192.75643098 251.66327 195.47445679 C250 197 250 197 247 197 C246.67 197.99 246.34 198.98 246 200 C215.25575259 200.06842096 184.51152258 200.12152033 153.76721724 200.15319599 C150.13851254 200.15694816 146.50980799 200.16083112 142.88110352 200.16479492 C141.79747768 200.16597532 141.79747768 200.16597532 140.69196042 200.16717956 C128.9909019 200.18023755 117.28988755 200.20389354 105.58885524 200.23145839 C93.58471213 200.25950168 81.58059216 200.27617398 69.57641762 200.28226548 C62.83292454 200.28601437 56.08952359 200.29503965 49.34606361 200.31719017 C43.00223422 200.33751325 36.65854658 200.34384222 30.31468773 200.33932304 C27.98340968 200.34015011 25.65212702 200.34614047 23.32087708 200.35761642 C20.14325202 200.37249488 16.9661654 200.36897032 13.78852844 200.36076355 C12.39796052 200.37387134 12.39796052 200.37387134 10.97930032 200.38724393 C6.18064262 200.35363877 2.86962429 200.17877393 -1 197 C-2.51707087 193.96585826 -2.14068559 190.81893191 -2.13371277 187.49061584 C-2.13597833 186.70698164 -2.13824388 185.92334743 -2.14057809 185.11596674 C-2.1469358 182.47581528 -2.1460876 179.83571493 -2.14526367 177.19555664 C-2.14825405 175.30852695 -2.15165629 173.42149787 -2.15544128 171.5344696 C-2.16429755 166.39818351 -2.16662007 161.26191407 -2.16725707 156.12562108 C-2.16820482 151.84358113 -2.17188153 147.56154508 -2.17542917 143.27950662 C-2.18357979 133.18055775 -2.18601283 123.0816178 -2.18530273 112.98266602 C-2.18470167 102.55122667 -2.1952578 92.11983899 -2.2110464 81.68841273 C-2.22410384 72.7440234 -2.22948739 63.799651 -2.22884732 54.85525221 C-2.22859182 49.50804196 -2.23147176 44.16087762 -2.24202538 38.81367683 C-2.25167629 33.78636004 -2.2518063 28.75913332 -2.24450874 23.73181343 C-2.24345917 21.8834673 -2.24584775 20.03511565 -2.2518692 18.18677902 C-2.25953959 15.66986791 -2.25497746 13.15327169 -2.24723816 10.6363678 C-2.25238172 9.89940849 -2.25752529 9.16244918 -2.26282471 8.40315777 C-2.23760487 4.70939312 -2.10688858 3.16033287 0 0 Z " fill="#0B0B0C" transform="translate(2,34)"/>
<path d="M0 0 C4.45660217 4.45660217 4.45660217 4.45660217 4.53497362 9.41822243 C4.52158929 10.49390008 4.52158929 10.49390008 4.50793457 11.59130859 C4.51417453 12.35961187 4.5204145 13.12791515 4.52684355 13.91950035 C4.54280919 16.49612413 4.53015583 19.07180656 4.51757812 21.6484375 C4.52299767 23.49473625 4.53011939 25.34103068 4.53881836 27.18731689 C4.55707455 32.20382512 4.54997469 37.22000479 4.53730202 42.23651886 C4.52718625 47.48239539 4.53656373 52.72824348 4.54284668 57.97412109 C4.55012723 66.78423115 4.54052466 75.59420716 4.52148438 84.40429688 C4.49971489 94.59499797 4.50676597 104.78537898 4.52879 114.97607231 C4.54693235 123.72012004 4.54950801 132.46407132 4.53903532 141.20813179 C4.53279399 146.43297702 4.53198234 151.65767172 4.54518127 156.88250732 C4.55672219 161.79424804 4.54874622 166.70557543 4.52560425 171.61727142 C4.52030775 173.42165185 4.52184698 175.22606696 4.53065491 177.03043365 C4.54155714 179.49032509 4.52791249 181.94888522 4.50793457 184.40869141 C4.51685746 185.12580984 4.52578034 185.84292828 4.53497362 186.58177757 C4.45409263 191.70227447 3.95301294 192.04698706 0 196 C0 131.32 0 66.64 0 0 Z " fill="#040204" transform="translate(251,35)"/>
<path d="M0 0 C2.22937519 0.00028282 4.45875047 0.0001223 6.68812561 -0.0004425 C12.6785533 -0.00072679 18.66896055 0.00510982 24.65938354 0.01213145 C30.94270582 0.01842687 37.22602869 0.01897365 43.50935364 0.02015686 C54.03553594 0.02290146 64.56171201 0.02912708 75.08789062 0.03808594 C85.91959598 0.04729512 96.75129932 0.05435871 107.58300781 0.05859375 C108.25307707 0.05885647 108.92314632 0.0591192 109.6135207 0.05938988 C112.97577874 0.06069512 116.33803679 0.06195878 119.70029485 0.06320179 C147.49917633 0.07362512 175.29804955 0.09118914 203.09692383 0.11352539 C202.76692383 1.10352539 202.43692383 2.09352539 202.09692383 3.11352539 C171.30160357 3.15911368 140.506291 3.19452565 109.71094508 3.21565605 C106.07837414 3.21815758 102.44580326 3.22074621 98.81323242 3.22338867 C98.09002827 3.22391329 97.36682411 3.22443791 96.62170468 3.22497843 C84.89923297 3.23368996 73.17678079 3.24946404 61.45432068 3.26783098 C49.43324033 3.28650925 37.41217024 3.29763771 25.39107597 3.30170238 C18.63596458 3.30420455 11.88089401 3.31024144 5.12579727 3.3249855 C-1.22538893 3.33850662 -7.57651226 3.34275917 -13.92771149 3.33974075 C-16.26508297 3.34029338 -18.60245644 3.34430323 -20.93981552 3.35193634 C-24.11839274 3.36181204 -27.29672908 3.3595214 -30.47531128 3.35403442 C-31.41109508 3.35986011 -32.34687889 3.36568579 -33.31101978 3.37168801 C-34.1579836 3.36770591 -35.00494743 3.36372381 -35.87757683 3.35962105 C-36.61195595 3.36038049 -37.34633507 3.36113993 -38.1029681 3.36192238 C-39.90307617 3.11352539 -39.90307617 3.11352539 -41.90307617 1.11352539 C-27.92270756 0.21756863 -14.00640229 -0.02524571 0 0 Z " fill="#525252" transform="translate(45.903076171875,230.886474609375)"/>
<path d="M0 0 C1.27051065 3.89452981 1.13611922 7.79823125 1.12025452 11.8460083 C1.12110894 12.64163516 1.12196337 13.43726202 1.12284368 14.25699878 C1.12449207 16.92558712 1.11898757 19.59411275 1.11352539 22.26269531 C1.11324335 24.17459105 1.11340157 26.08648689 1.1139679 27.99838257 C1.11425523 33.1922044 1.10836878 38.38600321 1.10139394 43.57981968 C1.0951498 49.00639797 1.09455576 54.43297677 1.09336853 59.85955811 C1.09025835 70.1371437 1.08204916 80.41471868 1.07201904 90.6922996 C1.0608482 102.39228925 1.055345 114.0922794 1.05032361 125.79227304 C1.03986631 149.86152125 1.0222729 173.93076003 1 198 C-0.47661114 196.97685242 -0.47661114 196.97685242 -2 195 C-2.29252098 192.37767172 -2.40049021 189.99310137 -2.3742218 187.37036133 C-2.37819621 186.5858727 -2.38217061 185.80138407 -2.38626546 184.99312305 C-2.39591485 182.35590989 -2.38405459 179.71922964 -2.37231445 177.08203125 C-2.37474155 175.19485269 -2.37846007 173.30767542 -2.38337708 171.42050171 C-2.39280095 166.28834184 -2.38334806 161.15637218 -2.37004495 156.02422714 C-2.35874914 150.66043815 -2.3628365 145.29665879 -2.36479187 139.93286133 C-2.36567544 130.9242847 -2.35458132 121.91578323 -2.33618164 112.90722656 C-2.31501307 102.48314141 -2.31150377 92.05916641 -2.3177436 81.63506413 C-2.32343289 71.61894841 -2.31779673 61.60287159 -2.30657005 51.58676147 C-2.30191829 47.31887088 -2.30105271 43.05100402 -2.3031559 38.78311157 C-2.30503577 33.75986833 -2.29695814 28.73673763 -2.2810955 23.71352005 C-2.27684305 21.86679169 -2.27600852 20.02005194 -2.27878571 18.17332077 C-2.28199438 15.65863543 -2.27295907 13.14428914 -2.26069641 10.62963867 C-2.26447573 9.89336148 -2.26825506 9.15708429 -2.27214891 8.39849567 C-2.2401705 4.70873641 -2.10447022 3.15670533 0 0 Z " fill="#020102" transform="translate(2,34)"/>
<path d="M0 0 C2.64 0 5.28 0 8 0 C8 21.12 8 42.24 8 64 C6.68 63.67 5.36 63.34 4 63 C4.33 62.34 4.66 61.68 5 61 C5.11982257 59.12155092 5.17729161 57.23899169 5.20532227 55.35693359 C5.22526749 54.17586029 5.24521271 52.99478699 5.26576233 51.77792358 C5.28247482 50.49769318 5.29918732 49.21746277 5.31640625 47.8984375 C5.33718735 46.59170074 5.35796844 45.28496399 5.37937927 43.93862915 C5.43459294 40.463311 5.48400525 36.98793347 5.53222656 33.51251221 C5.58244677 29.966621 5.63813012 26.4208161 5.69335938 22.875 C5.80093228 15.9167415 5.90237917 8.95840504 6 2 C3.03 1.505 3.03 1.505 0 1 C0 0.67 0 0.34 0 0 Z " fill="#0808E9" transform="translate(243,96)"/>
<path d="M0 0 C0.33 0 0.66 0 1 0 C1 18.81 1 37.62 1 57 C0.01 57 -0.98 57 -2 57 C-1.87958481 51.77529699 -1.75526356 46.55070489 -1.62768555 41.32617188 C-1.5850068 39.55764132 -1.54330252 37.78908692 -1.50268555 36.02050781 C-1.22568218 23.99650998 -0.74354667 12.0044014 0 0 Z " fill="#EAEAEA" transform="translate(250,38)"/>
</svg>
