<?xml version="1.0" encoding="UTF-8"?>
<svg version="1.1" xmlns="http://www.w3.org/2000/svg" width="256" height="256">
<path d="M0 0 C82.5 0 165 0 250 0 C250.33 10.89 250.66 21.78 251 33 C251.99 34.98 252.98 36.96 254 39 C254.27689501 41.6118896 254.40636952 43.9786173 254.38095093 46.58384705 C254.3856309 47.32724116 254.39031087 48.07063528 254.39513266 48.83655649 C254.40705783 51.31692132 254.39763534 53.7967311 254.38818359 56.27709961 C254.39225044 58.05971091 254.39759295 59.84231969 254.40411377 61.62492371 C254.41778073 66.45965794 254.41249099 71.29419993 254.40297651 76.12893748 C254.39537555 81.19188498 254.40242685 86.25481613 254.40713501 91.31776428 C254.41259178 99.82084097 254.40540351 108.32383948 254.39111328 116.8269043 C254.37479218 126.65172596 254.38007168 136.4763608 254.3965925 146.30117792 C254.41021584 154.74126976 254.41212271 163.18130542 254.40427649 171.62140471 C254.39960397 176.66017535 254.39896346 181.69885824 254.40888596 186.73762321 C254.41756547 191.47615215 254.41151566 196.21444077 254.39420319 200.9529438 C254.39024339 202.68995388 254.3913637 204.42698426 254.39799118 206.16398621 C254.40621711 208.53931835 254.395873 210.9138856 254.38095093 213.28916931 C254.38764309 213.97283929 254.39433526 214.65650927 254.40123022 215.36089653 C254.33739295 220.61765985 253.25953383 222.72775439 251 228 C250.67 235.26 250.34 242.52 250 250 C167.5 250 85 250 0 250 C-0.33 242.74 -0.66 235.48 -1 228 C-1.33 227.67 -1.66 227.34 -2 227 C-2.09994659 224.49816166 -2.1344141 222.02386747 -2.12698364 219.52148438 C-2.12854363 218.72912636 -2.13010362 217.93676834 -2.13171089 217.12039948 C-2.1357241 214.44483116 -2.13253001 211.76931882 -2.12939453 209.09375 C-2.13074843 207.18391893 -2.1325283 205.27408812 -2.13470459 203.36425781 C-2.13928028 198.16192999 -2.13748881 192.95962189 -2.1343255 187.7572937 C-2.1318026 182.32582545 -2.13413924 176.89435894 -2.13571167 171.46289062 C-2.13753357 162.33984065 -2.13512652 153.21679875 -2.13037109 144.09375 C-2.12492844 133.52995404 -2.12669108 122.96617738 -2.1321975 112.4023819 C-2.13672805 103.35019007 -2.13737946 94.29800406 -2.13475883 85.24581146 C-2.13319573 79.8315957 -2.13300318 74.41738902 -2.13629532 69.00317383 C-2.13917319 63.91433809 -2.1371999 58.82552736 -2.13140106 53.73669434 C-2.13007301 51.86332236 -2.13046834 49.98994831 -2.13266373 48.11657715 C-2.13537347 45.57052773 -2.13199628 43.02455977 -2.12698364 40.47851562 C-2.12921436 39.72726662 -2.13144509 38.97601761 -2.13374341 38.20200348 C-2.11414985 33.11414985 -2.11414985 33.11414985 -1 32 C-0.67 21.44 -0.34 10.88 0 0 Z " fill="#19ABC3" transform="translate(2,3)"/>
<path d="M0 0 C0.33 0 0.66 0 1 0 C1 40.26 1 80.52 1 122 C0.34 122 -0.32 122 -1 122 C-1.268125 122.61875 -1.53625 123.2375 -1.8125 123.875 C-3 126 -3 126 -6 128 C-7.87777972 128.25415033 -7.87777972 128.25415033 -10.03528976 128.26006222 C-10.85902737 128.26712781 -11.68276498 128.2741934 -12.53146434 128.2814731 C-13.88858999 128.27785047 -13.88858999 128.27785047 -15.27313232 128.27415466 C-16.234475 128.27939134 -17.19581767 128.28462802 -18.18629193 128.29002339 C-21.42208774 128.30507894 -24.65772619 128.30572976 -27.89355469 128.30639648 C-30.20773589 128.3140143 -32.52191455 128.32244114 -34.83609009 128.33161926 C-41.13370711 128.35361005 -47.43127557 128.36236947 -53.72892666 128.36744571 C-57.6616289 128.37108427 -61.59431832 128.37732175 -65.52701569 128.3844471 C-76.41649076 128.403909 -87.30595276 128.42041786 -98.19544601 128.42332363 C-98.89243597 128.4235112 -99.58942593 128.42369877 -100.3075368 128.42389202 C-101.72050238 128.42425828 -103.13346796 128.42462197 -104.54643354 128.42498314 C-105.59852706 128.42525735 -105.59852706 128.42525735 -106.671875 128.42553711 C-107.37412741 128.42571766 -108.07637982 128.42589821 -108.7999126 128.42608423 C-120.1761645 128.42962504 -131.55222701 128.45664048 -142.92841324 128.494035 C-154.6094935 128.53212423 -166.29047073 128.55104015 -177.97161412 128.55178314 C-184.52962551 128.55257702 -191.08739271 128.56136666 -197.6453476 128.58978081 C-203.81449947 128.61591125 -209.98320387 128.61819431 -216.15238571 128.60212517 C-218.41671345 128.60030662 -220.68106661 128.60703775 -222.9453392 128.62294388 C-226.03706912 128.6433384 -229.12722377 128.6328905 -232.21893311 128.61473083 C-233.56267443 128.63453079 -233.56267443 128.63453079 -234.93356204 128.65473074 C-235.76773064 128.6435421 -236.60189924 128.63235346 -237.46134567 128.62082577 C-238.53028726 128.62204745 -238.53028726 128.62204745 -239.62082362 128.62329382 C-242 128 -242 128 -249 123 C-249 104.19 -249 85.38 -249 66 C-166.83 66 -84.66 66 0 66 C0 44.22 0 22.44 0 0 Z " fill="#34B84C" transform="translate(251,97)"/>
<path d="M0 0 C82.17 0 164.34 0 249 0 C249 20.46 249 40.92 249 62 C166.83 62 84.66 62 0 62 C0 41.54 0 21.08 0 0 Z " fill="#FCFBFC" transform="translate(2,97)"/>
<path d="M0 0 C0.33 0 0.66 0 1 0 C1 19.47 1 38.94 1 59 C83.17 59 165.34 59 250 59 C250 41.18 250 23.36 250 5 C250.66 3.68 251.32 2.36 252 1 C254.69318468 5.60849053 255.43211876 9.33949742 255.38095093 14.58384705 C255.3856309 15.32724116 255.39031087 16.07063528 255.39513266 16.83655649 C255.40705783 19.31692132 255.39763534 21.7967311 255.38818359 24.27709961 C255.39225044 26.05971091 255.39759295 27.84231969 255.40411377 29.62492371 C255.41778073 34.45965794 255.41249099 39.29419993 255.40297651 44.12893748 C255.39537555 49.19188498 255.40242685 54.25481613 255.40713501 59.31776428 C255.41259178 67.82084097 255.40540351 76.32383948 255.39111328 84.8269043 C255.37479218 94.65172596 255.38007168 104.4763608 255.3965925 114.30117792 C255.41021584 122.74126976 255.41212271 131.18130542 255.40427649 139.62140471 C255.39960397 144.66017535 255.39896346 149.69885824 255.40888596 154.73762321 C255.41756547 159.47615215 255.41151566 164.21444077 255.39420319 168.9529438 C255.39024339 170.68995388 255.3913637 172.42698426 255.39799118 174.16398621 C255.40621711 176.53931835 255.395873 178.9138856 255.38095093 181.28916931 C255.38764309 181.97283929 255.39433526 182.65650927 255.40123022 183.36089653 C255.33739295 188.61765985 254.25953383 190.72775439 252 196 C251.67 203.26 251.34 210.52 251 218 C168.5 218 86 218 1 218 C0.67 210.74 0.34 203.48 0 196 C-0.33 195.67 -0.66 195.34 -1 195 C-1.09994659 192.49816166 -1.1344141 190.02386747 -1.12698364 187.52148438 C-1.12854363 186.72912636 -1.13010362 185.93676834 -1.13171089 185.12039948 C-1.1357241 182.44483116 -1.13253001 179.76931882 -1.12939453 177.09375 C-1.13074843 175.18391893 -1.1325283 173.27408812 -1.13470459 171.36425781 C-1.13928028 166.16192999 -1.13748881 160.95962189 -1.1343255 155.7572937 C-1.1318026 150.32582545 -1.13413924 144.89435894 -1.13571167 139.46289062 C-1.13753357 130.33984065 -1.13512652 121.21679875 -1.13037109 112.09375 C-1.12492844 101.52995404 -1.12669108 90.96617738 -1.1321975 80.4023819 C-1.13672805 71.35019007 -1.13737946 62.29800406 -1.13475883 53.24581146 C-1.13319573 47.8315957 -1.13300318 42.41738902 -1.13629532 37.00317383 C-1.13917319 31.91433809 -1.1371999 26.82552736 -1.13140106 21.73669434 C-1.13007301 19.86332236 -1.13046834 17.98994831 -1.13266373 16.11657715 C-1.13537347 13.57052773 -1.13199628 11.02455977 -1.12698364 8.47851562 C-1.12921436 7.72726662 -1.13144509 6.97601761 -1.13374341 6.20200348 C-1.11414985 1.11414985 -1.11414985 1.11414985 0 0 Z M1 62 C1 82.46 1 102.92 1 124 C83.17 124 165.34 124 250 124 C250 125.32 250 126.64 250 128 C167.83 128 85.66 128 1 128 C1 146.81 1 165.62 1 185 C6.65097514 189.65839001 6.65097514 189.65839001 12.5330677 190.62641239 C13.7824705 190.64504545 13.7824705 190.64504545 15.05711377 190.66405493 C15.95157708 190.6522192 16.84604038 190.64038347 17.76760864 190.62818909 C18.73378014 190.63528347 19.69995165 190.64237786 20.69540107 190.64968723 C23.92380695 190.66725001 27.15100621 190.64917057 30.37939453 190.63110352 C32.69741361 190.63624289 35.01542879 190.6435243 37.33343506 190.65278625 C43.62255904 190.67130373 49.91125919 190.65835986 56.20036554 190.63869596 C62.78038181 190.62231521 69.36037111 190.63112138 75.94039917 190.63621521 C86.98816432 190.64165396 98.03576965 190.62496905 109.08349609 190.59692383 C120.44815095 190.56807451 131.81256465 190.56100983 143.17724609 190.57641602 C156.87929836 190.5949654 170.58117644 190.59324266 184.28322983 190.57420158 C189.51520641 190.56732368 194.74709341 190.56837113 199.97906876 190.57574654 C206.13677318 190.58339789 212.29412956 190.57132036 218.4517746 190.54389763 C220.71370027 190.53700131 222.97565838 190.53692909 225.23758316 190.54411316 C228.32089895 190.5527789 231.40313344 190.53689992 234.48635864 190.5146637 C235.3852834 190.52290446 236.28420815 190.53114523 237.21037304 190.53963572 C241.35828615 190.48427295 243.48602536 190.31675641 247.09460258 188.09283352 C249.22440614 186.2252323 249.22440614 186.2252323 249 184 C249.66 184 250.32 184 251 184 C251 143.74 251 103.48 251 62 C168.5 62 86 62 1 62 Z " fill="#0A0B0A" transform="translate(1,35)"/>
<path d="M0 0 C82.5 0 165 0 250 0 C250 10.89 250 21.78 250 33 C248.02 31.68 246.04 30.36 244 29 C241.76008992 28.42253521 241.76008992 28.42253521 239.54312801 28.50222206 C238.70173367 28.49302447 237.86033934 28.48382688 236.9934482 28.47435057 C235.6298747 28.48978126 235.6298747 28.48978126 234.23875427 28.50552368 C233.26118654 28.50069485 232.2836188 28.49586602 231.27642781 28.49089086 C228.00359272 28.47962699 224.73154015 28.49693423 221.45874023 28.51416016 C219.1113158 28.51201414 216.7638924 28.50813621 214.41647339 28.50265503 C208.0426247 28.49295853 201.66905596 28.50826876 195.29524112 28.52856112 C189.30410752 28.5443426 183.31298649 28.54288588 177.32183779 28.54201047 C165.45124463 28.54100976 153.58075932 28.55931847 141.71020508 28.58837891 C130.19325801 28.61655904 118.67640585 28.63072013 107.15942383 28.62939453 C106.44993524 28.62931462 105.74044666 28.62923471 105.00945842 28.62915237 C104.30119239 28.62907166 103.59292637 28.62899095 102.86319774 28.6289078 C90.41286685 28.62759778 77.96257391 28.63783995 65.51225471 28.65449142 C60.21052816 28.66155819 54.90881531 28.66521808 49.60708427 28.66627884 C43.36658626 28.66828591 37.12618816 28.68048091 30.88572311 28.70061111 C28.59315541 28.70645928 26.3005762 28.70891222 24.00800133 28.70775604 C20.88331491 28.70677643 17.75890941 28.7180683 14.63426208 28.73257446 C13.72298237 28.72947726 12.81170265 28.72638005 11.8728084 28.723189 C11.0340218 28.72963789 10.19523521 28.73608678 9.33103085 28.74273109 C8.61015661 28.74413994 7.88928238 28.74554879 7.14656347 28.74700034 C4.44311398 28.97126913 4.44311398 28.97126913 0 31 C0 20.77 0 10.54 0 0 Z " fill="#FEFEFE" transform="translate(2,3)"/>
<path d="M0 0 C0 7.59 0 15.18 0 23 C-82.5 23 -165 23 -250 23 C-250 16.07 -250 9.14 -250 2 C-248.68 2.33 -247.36 2.66 -246 3 C-244.57827184 3.09064789 -243.15301068 3.13350358 -241.728405 3.1386652 C-240.87745908 3.14413964 -240.02651315 3.14961409 -239.14978099 3.15525442 C-237.75484381 3.15672158 -237.75484381 3.15672158 -236.33172607 3.15821838 C-235.3400887 3.16315636 -234.34845133 3.16809434 -233.32676435 3.17318195 C-229.99486284 3.18857356 -226.66298062 3.19692211 -223.33105469 3.20532227 C-220.94625681 3.21489948 -218.56146064 3.22490946 -216.17666626 3.23532104 C-210.36723255 3.25958037 -204.55779608 3.27931664 -198.74833915 3.29707379 C-191.98863033 3.31797838 -185.22894674 3.34443697 -178.46925917 3.37124526 C-166.41441448 3.41890613 -154.35955818 3.4621744 -142.3046875 3.50268555 C-130.59439185 3.54204813 -118.88410652 3.58347618 -107.17382812 3.62768555 C-106.45202609 3.63040982 -105.73022405 3.63313409 -104.98654923 3.63594092 C-101.36548639 3.64962052 -97.74442371 3.66334077 -94.12336111 3.67708123 C-64.08226219 3.79102237 -34.04114117 3.89776386 -4 4 C-4 3.34 -4 2.68 -4 2 C-1 0 -1 0 0 0 Z " fill="#FEFEFE" transform="translate(252,230)"/>
<path d="M0 0 C1.25817989 -0.01358496 1.25817989 -0.01358496 2.54177755 -0.02744436 C3.45305727 -0.02211644 4.36433699 -0.01678851 5.30323124 -0.01129913 C6.27923898 -0.01739024 7.25524673 -0.02348134 8.26083046 -0.02975702 C11.53428307 -0.04641831 14.80734803 -0.04160667 18.08083439 -0.03681183 C20.42649077 -0.04415029 22.77214354 -0.05273586 25.11779118 -0.06247711 C31.49169351 -0.08472428 37.8654667 -0.08762221 44.23940253 -0.0857296 C48.88759812 -0.08562512 53.53576686 -0.09206281 58.18395584 -0.09935716 C58.84735816 -0.10039664 59.51076048 -0.10143613 60.1942659 -0.10250711 C61.19298422 -0.10407241 61.19298422 -0.10407241 62.21187866 -0.10566932 C74.80159763 -0.12456794 87.39125832 -0.12352256 99.98098559 -0.11669999 C111.49682267 -0.11112383 123.01243733 -0.13195362 134.52822243 -0.16506046 C146.35513866 -0.19879769 158.18194833 -0.21396583 170.00891358 -0.20934343 C176.64787764 -0.20709889 183.28666147 -0.21279839 189.92558956 -0.23723602 C196.16782869 -0.25945389 202.40960397 -0.25766615 208.65184498 -0.2373085 C210.94400166 -0.2338898 213.23618927 -0.23902431 215.5283041 -0.25329208 C218.65532186 -0.27141524 221.78075439 -0.25878599 224.90772343 -0.23834991 C226.27129692 -0.25712669 226.27129692 -0.25712669 227.66241735 -0.27628279 C228.50381169 -0.26447745 229.34520603 -0.25267211 230.21209717 -0.24050903 C230.93313375 -0.24078142 231.65417034 -0.2410538 232.39705652 -0.24133444 C234.66896915 0.38311005 234.66896915 0.38311005 240.66896915 5.38311005 C240.33896915 24.52311005 240.00896915 43.66311005 239.66896915 63.38311005 C157.49896915 63.38311005 75.32896915 63.38311005 -9.33103085 63.38311005 C-9.33103085 43.58311005 -9.33103085 23.78311005 -9.33103085 3.38311005 C-3.70597655 0.00807747 -3.70597655 0.00807747 0 0 Z M4.66896915 7.38311005 C4.66896915 8.04311005 4.66896915 8.70311005 4.66896915 9.38311005 C4.07084415 9.67186005 3.47271915 9.96061005 2.85646915 10.25811005 C0.47569124 11.4305303 0.47569124 11.4305303 -2.33103085 13.38311005 C-2.33103085 29.55311005 -2.33103085 45.72311005 -2.33103085 62.38311005 C75.21896915 62.38311005 152.76896915 62.38311005 232.66896915 62.38311005 C232.66896915 46.21311005 232.66896915 30.04311005 232.66896915 13.38311005 C228.47586692 9.17487836 228.47586692 9.17487836 225.66896915 9.38311005 C225.66896915 8.72311005 225.66896915 8.06311005 225.66896915 7.38311005 C152.73896915 7.38311005 79.80896915 7.38311005 4.66896915 7.38311005 Z " fill="#118AA2" transform="translate(11.33103084564209,30.61688995361328)"/>
<path d="M0 0 C72.93 0 145.86 0 221 0 C221 0.66 221 1.32 221 2 C222.98 2.99 222.98 2.99 225 4 C225 4.66 225 5.32 225 6 C223.35 6 221.7 6 220 6 C220 5.34 220 4.68 220 4 C174.46 4.495 174.46 4.495 128 5 C127.34 6.32 126.68 7.64 126 9 C124.35 9 122.7 9 121 9 C120.01 7.02 120.01 7.02 119 5 C117.3973218 4.89175157 115.79254252 4.81429355 114.1875 4.75 C113.29417969 4.70359375 112.40085937 4.6571875 111.48046875 4.609375 C108.83653722 4.73647732 108.83653722 4.73647732 107.42578125 7.015625 C106.72001953 7.99789062 106.72001953 7.99789062 106 9 C104.68 9 103.36 9 102 9 C101.76539062 8.35546875 101.53078125 7.7109375 101.2890625 7.046875 C100.18838927 4.7922092 100.18838927 4.7922092 97.8359375 4.390625 C97.02382812 4.34421875 96.21171875 4.2978125 95.375 4.25 C94.14910156 4.16492187 94.14910156 4.16492187 92.8984375 4.078125 C92.27195312 4.05234375 91.64546875 4.0265625 91 4 C91 4.66 91 5.32 91 6 C90.01 6 89.02 6 88 6 C88.495 7.485 88.495 7.485 89 9 C87.35 9 85.7 9 84 9 C83.505 7.515 83.505 7.515 83 6 C79.56623732 4.28311866 75.61885635 4.75490998 71.8359375 4.68359375 C70.92872955 4.66281265 70.02152161 4.64203156 69.08682251 4.62062073 C66.1829602 4.55512865 63.27900595 4.49624186 60.375 4.4375 C58.40884458 4.39431445 56.44269853 4.35070015 54.4765625 4.30664062 C49.65113638 4.19944761 44.8256176 4.09817919 40 4 C40 4.66 40 5.32 40 6 C39.35933594 6.01417969 38.71867187 6.02835938 38.05859375 6.04296875 C31.79616044 6.38828922 27.37830509 7.31974284 23 12 C19.68682545 16.51260273 18.25316822 21.10224678 18.5625 26.69921875 C19.57406636 32.018974 21.81405189 36.33978624 26.16015625 39.640625 C30.06162597 41.90725516 33.53985845 43.24617326 38 44 C37 46 37 46 35.0625 47.125 C29.11616097 48.82395401 23.33382299 48.96622356 17.6875 46.25 C16.44318977 45.52540167 15.21210642 44.77727004 14 44 C13.113125 43.46375 12.22625 42.9275 11.3125 42.375 C6.21388693 37.13858658 3.70128078 31.23686727 3.375 23.9375 C3.68844897 16.56669995 6.67589407 11.01184165 12 6 C6.22240116 5.87963336 0.72040011 6.1679418 -5 7 C-4.1875 5.0625 -4.1875 5.0625 -3 3 C-2.01 2.67 -1.02 2.34 0 2 C0 1.34 0 0.68 0 0 Z " fill="#95D9E2" transform="translate(16,38)"/>
<path d="M0 0 C82.17 0 164.34 0 249 0 C249 1.32 249 2.64 249 4 C166.83 4 84.66 4 0 4 C0 2.68 0 1.36 0 0 Z " fill="#CF3447" transform="translate(2,159)"/>
<path d="M0 0 C2.2477975 2.05233685 3.0022242 3.00667261 4 6 C4.09952887 8.41723161 4.14345729 10.80570948 4.14044189 13.2230835 C4.14489858 14.33432976 4.14489858 14.33432976 4.1494453 15.46802545 C4.15813664 17.95753614 4.15964092 20.44699877 4.16113281 22.93652344 C4.16576071 24.71869001 4.17078534 26.50085559 4.17617798 28.28302002 C4.1893075 33.13026485 4.19574812 37.97749583 4.20018864 42.82475567 C4.20311874 45.85290145 4.20722345 48.88104344 4.21169281 51.90918732 C4.22536978 61.38281733 4.23503521 70.85643868 4.2388947 80.33007789 C4.24337477 91.26715031 4.2609195 102.20409771 4.2898953 113.14113212 C4.3115122 121.59388859 4.321599 130.04660988 4.32293582 138.4993937 C4.32398393 143.54828714 4.32989289 148.59706309 4.34775543 153.64592743 C4.36423601 158.39670197 4.36639166 163.14727072 4.35761642 167.89806366 C4.35684602 169.63991853 4.36118924 171.38178446 4.37107468 173.12361145 C4.38379852 175.50564595 4.37791535 177.88695207 4.36749268 180.26898193 C4.37554908 180.95469827 4.38360548 181.64041461 4.39190602 182.34691024 C4.34144852 187.2937402 3.13592587 190.63740884 1 195 C0.67 195 0.34 195 0 195 C-0.13294904 178.0700563 -0.26338917 161.14009518 -0.39115143 144.21011162 C-0.45057992 136.34221387 -0.51072648 128.47432303 -0.57275391 120.60644531 C-0.80957499 90.5102584 -1.04501286 60.41370931 -1.08811951 30.31650162 C-1.09183904 27.96561501 -1.09714959 25.61473032 -1.10414124 23.26385117 C-1.11292583 20.06797145 -1.11515358 16.87215971 -1.11523438 13.67626953 C-1.11880447 12.74415775 -1.12237457 11.81204597 -1.12605286 10.85168839 C-1.12377937 9.57401911 -1.12377937 9.57401911 -1.12145996 8.27053833 C-1.12217247 7.5369063 -1.12288498 6.80327427 -1.12361908 6.04741096 C-0.99537343 3.92337355 -0.58048933 2.04310144 0 0 Z " fill="#010304" transform="translate(252,36)"/>
<path d="M0 0 C82.5 0 165 0 250 0 C250 0.99 250 1.98 250 3 C167.5 3 85 3 0 3 C0 2.01 0 1.02 0 0 Z " fill="#D1263A" transform="translate(2,94)"/>
<path d="M0 0 C0 0.33 0 0.66 0 1 C-0.56847656 1.08636719 -1.13695312 1.17273437 -1.72265625 1.26171875 C-8.24204235 2.44805111 -13.28433288 4.32019071 -17.3203125 9.7890625 C-20.1238182 14.70990118 -21.0616559 19.41682745 -20 25 C-17.77314457 31.56279988 -14.4019774 35.02153259 -8.28125 38.125 C-5.86896174 39.05026125 -3.54384798 39.57005386 -1 40 C-2 42 -2 42 -3.9375 43.125 C-9.88383903 44.82395401 -15.66617701 44.96622356 -21.3125 42.25 C-22.55681023 41.52540167 -23.78789358 40.77727004 -25 40 C-25.886875 39.46375 -26.77375 38.9275 -27.6875 38.375 C-32.78611307 33.13858658 -35.29871922 27.23686727 -35.625 19.9375 C-35.28741026 13.01691032 -33.13660314 7.94056544 -28.0625 3.18359375 C-19.20060458 -3.78172178 -10.17641573 -5.30943429 0 0 Z " fill="#F7FBFC" transform="translate(55,42)"/>
<path d="M0 0 C0.61383138 0.07087043 1.22766276 0.14174086 1.86009508 0.21475887 C7.70269493 0.85009458 13.43883339 1.13984754 19.31285095 1.11352539 C20.63475499 1.11374868 20.63475499 1.11374868 21.98336416 1.11397648 C24.90682202 1.1132876 27.83021531 1.10547082 30.75366211 1.09765625 C32.86221278 1.09573497 34.9707639 1.09427216 37.07931519 1.0932312 C41.60757742 1.09007874 46.13582083 1.08382262 50.66407585 1.07516479 C57.84054801 1.06158794 65.01701401 1.05573616 72.1934967 1.05102539 C88.73378898 1.03900083 105.27406511 1.01699603 121.81434631 0.99479675 C136.95585274 0.97456327 152.09735353 0.95649766 167.23887068 0.94658184 C174.35544324 0.94163261 181.47198668 0.93182205 188.58854759 0.91815186 C193.04062271 0.91062624 197.49269399 0.90736343 201.94477463 0.9051857 C203.98959019 0.90333322 206.03440514 0.89977234 208.0792141 0.89425278 C220.75539339 0.86115071 233.34840205 1.19540685 246 2 C246 2.66 246 3.32 246 4 C215.2387233 4.04560541 184.47745433 4.08100913 153.71615191 4.10213066 C150.08615851 4.10463213 146.45616517 4.10722077 142.82617188 4.10986328 C141.74215258 4.11065021 141.74215258 4.11065021 140.6362339 4.11145304 C128.92804634 4.12016043 117.21987837 4.13593224 105.51170245 4.15430559 C93.50191256 4.17299536 81.49213296 4.18411477 69.48232913 4.18817699 C62.73497874 4.19067721 55.98766926 4.19670077 49.24033356 4.21146011 C42.89406576 4.22499958 36.54786092 4.22923001 30.20158005 4.22621536 C27.86827376 4.22676716 25.53496543 4.23076615 23.2016716 4.23841095 C20.02379416 4.24831525 16.84615656 4.24598535 13.66827393 4.24050903 C12.27333674 4.24924756 12.27333674 4.24924756 10.85021901 4.25816262 C9.57380013 4.25218947 9.57380013 4.25218947 8.271595 4.24609566 C7.53797532 4.2468551 6.80435565 4.24761454 6.04850507 4.24839699 C3.68717238 3.96206725 2.05591275 3.16806765 0 2 C0 1.34 0 0.68 0 0 Z " fill="#262626" transform="translate(2,230)"/>
<path d="M0 0 C82.5 0 165 0 250 0 C250 0.99 250 1.98 250 3 C247.36 3 244.72 3 242 3 C242 2.34 242 1.68 242 1 C164.45 1 86.9 1 7 1 C7 1.66 7 2.32 7 3 C4.69 3 2.38 3 0 3 C0 2.01 0 1.02 0 0 Z " fill="#E12137" transform="translate(2,94)"/>
<path d="M0 0 C79.2 0 158.4 0 240 0 C240 0.99 240 1.98 240 3 C233.49979626 3.12500392 233.49979626 3.12500392 231.01991057 2.50476032 C228.91163335 1.97791784 227.10127662 1.86964384 224.93143082 1.8613348 C224.12576904 1.85586036 223.32010725 1.85038591 222.49003148 1.84474558 C221.61065569 1.84376747 220.73127989 1.84278936 219.82525635 1.84178162 C218.88670516 1.83684364 217.94815397 1.83190566 216.98116183 1.82681805 C213.82891438 1.81143143 210.67668731 1.80307924 207.52441406 1.79467773 C205.26769328 1.78510013 203.01097429 1.77509012 200.7542572 1.76467896 C194.62040366 1.73761111 188.4865424 1.71661169 182.35266209 1.69667697 C175.94511569 1.67482903 169.53759311 1.64743451 163.13006592 1.62062073 C152.37301605 1.57635578 141.61595943 1.53552325 130.85888672 1.49731445 C119.77912441 1.45795008 108.69937299 1.4165216 97.61962891 1.37231445 C96.59517227 1.36822804 96.59517227 1.36822804 95.55001953 1.36405908 C92.12374962 1.35037945 88.69747987 1.33665921 85.27121019 1.32291877 C56.8474962 1.20898316 28.4237583 1.1022404 0 1 C0 0.67 0 0.34 0 0 Z " fill="#CD182C" transform="translate(11,160)"/>
<path d="M0 0 C2.97 0.495 2.97 0.495 6 1 C6 1.66 6 2.32 6 3 C85.2 3 164.4 3 246 3 C246 3.33 246 3.66 246 4 C215.2387233 4.04560541 184.47745433 4.08100913 153.71615191 4.10213066 C150.08615851 4.10463213 146.45616517 4.10722077 142.82617188 4.10986328 C141.74215258 4.11065021 141.74215258 4.11065021 140.6362339 4.11145304 C128.92804634 4.12016043 117.21987837 4.13593224 105.51170245 4.15430559 C93.50191256 4.17299536 81.49213296 4.18411477 69.48232913 4.18817699 C62.73497874 4.19067721 55.98766926 4.19670077 49.24033356 4.21146011 C42.89406576 4.22499958 36.54786092 4.22923001 30.20158005 4.22621536 C27.86827376 4.22676716 25.53496543 4.23076615 23.2016716 4.23841095 C20.02379416 4.24831525 16.84615656 4.24598535 13.66827393 4.24050903 C12.27333674 4.24924756 12.27333674 4.24924756 10.85021901 4.25816262 C9.57380013 4.25218947 9.57380013 4.25218947 8.271595 4.24609566 C7.53797532 4.2468551 6.80435565 4.24761454 6.04850507 4.24839699 C3.68717238 3.96206725 2.05591275 3.16806765 0 2 C0 1.34 0 0.68 0 0 Z " fill="#656565" transform="translate(2,230)"/>
<path d="M0 0 C0.66 0 1.32 0 2 0 C2 0.66 2 1.32 2 2 C3.32 2.66 4.64 3.32 6 4 C6 4.66 6 5.32 6 6 C4.35 6 2.7 6 1 6 C1 5.34 1 4.68 1 4 C-0.73767387 4.02212303 -0.73767387 4.02212303 -2.51045227 4.04469299 C-13.41412186 4.18283916 -24.31784563 4.31556987 -35.22164631 4.4429636 C-40.82773375 4.50863692 -46.43378435 4.57623519 -52.03979492 4.64819336 C-57.44729699 4.71753333 -62.85483734 4.7818682 -68.26244164 4.84269524 C-70.32817952 4.86681853 -72.39389695 4.89276222 -74.459589 4.92053413 C-77.34713162 4.95904797 -80.23467837 4.9911583 -83.12231445 5.02172852 C-84.41056374 5.04114754 -84.41056374 5.04114754 -85.72483826 5.06095886 C-89.08185844 5.09100018 -91.79107137 5.06964288 -95 4 C-95 3.34 -95 2.68 -95 2 C-63.65 2 -32.3 2 0 2 C0 1.34 0 0.68 0 0 Z " fill="#6CCBD9" transform="translate(235,38)"/>
<path d="M0 0 C0.80179688 0.00451172 1.60359375 0.00902344 2.4296875 0.01367188 C4.41149006 0.02546832 6.39325433 0.04340395 8.375 0.0625 C8.705 1.3825 9.035 2.7025 9.375 4.0625 C10.365 4.0625 11.355 4.0625 12.375 4.0625 C12.045 5.7125 11.715 7.3625 11.375 9.0625 C9.725 9.0625 8.075 9.0625 6.375 9.0625 C5.715 7.7425 5.055 6.4225 4.375 5.0625 C2.7723218 4.95425157 1.16754252 4.87679355 -0.4375 4.8125 C-1.77748047 4.74289063 -1.77748047 4.74289063 -3.14453125 4.671875 C-5.78846278 4.79897732 -5.78846278 4.79897732 -7.19921875 7.078125 C-7.66972656 7.73296875 -8.14023438 8.3878125 -8.625 9.0625 C-9.945 9.0625 -11.265 9.0625 -12.625 9.0625 C-12.955 7.4125 -13.285 5.7625 -13.625 4.0625 C-12.635 4.0625 -11.645 4.0625 -10.625 4.0625 C-10.625 3.0725 -10.625 2.0825 -10.625 1.0625 C-7.31505287 -0.59247356 -3.63377 -0.03834335 0 0 Z " fill="#87D4DF" transform="translate(130.625,37.9375)"/>
<path d="M0 0 C38.28 0 76.56 0 116 0 C116 0.99 116 1.98 116 3 C113.36 3 110.72 3 108 3 C108 2.34 108 1.68 108 1 C72.36 1 36.72 1 0 1 C0 0.67 0 0.34 0 0 Z " fill="#DF172A" transform="translate(136,94)"/>
<path d="M0 0 C16.17 0 32.34 0 49 0 C49 0.66 49 1.32 49 2 C46.16592863 2.81386532 43.72555644 3.10348768 40.78222656 3.02172852 C39.96167786 3.00163223 39.14112915 2.98153595 38.29571533 2.96083069 C37.41953552 2.93379562 36.54335571 2.90676056 35.640625 2.87890625 C34.73624695 2.85529526 33.8318689 2.83168427 32.90008545 2.80735779 C30.01655712 2.73089281 27.13330903 2.64679464 24.25 2.5625 C22.29298238 2.50926213 20.33595116 2.45652185 18.37890625 2.40429688 C13.58576063 2.27530089 8.79285213 2.13945947 4 2 C4 2.66 4 3.32 4 4 C1.69 4 -0.62 4 -3 4 C-1.68 3.34 -0.36 2.68 1 2 C0.67 1.34 0.34 0.68 0 0 Z " fill="#6FCCD9" transform="translate(52,40)"/>
<path d="M0 0 C0.51046875 0.15339844 1.0209375 0.30679688 1.546875 0.46484375 C4.7749338 1.16905403 7.95418001 1.34888204 11.25 1.5625 C12.51328125 1.64628906 13.7765625 1.73007812 15.078125 1.81640625 C16.04234375 1.87699219 17.0065625 1.93757813 18 2 C14.72237301 5.89792555 14.72237301 5.89792555 11.484375 6.35546875 C10.58203125 6.30003906 9.6796875 6.24460937 8.75 6.1875 C4.004956 6.00279359 -0.30928965 6.29196825 -5 7 C-4.1875 5.0625 -4.1875 5.0625 -3 3 C-2.01 2.67 -1.02 2.34 0 2 C0 1.34 0 0.68 0 0 Z " fill="#78CEDB" transform="translate(16,38)"/>
<path d="M0 0 C16.5 0 33 0 50 0 C50 0.33 50 0.66 50 1 C35.81 1 21.62 1 7 1 C7 1.66 7 2.32 7 3 C4.69 3 2.38 3 0 3 C0 2.01 0 1.02 0 0 Z " fill="#E11C33" transform="translate(2,94)"/>
<path d="M0 0 C2.97 0.495 2.97 0.495 6 1 C6 1.66 6 2.32 6 3 C22.17 3 38.34 3 55 3 C55 3.33 55 3.66 55 4 C47.81008919 4.05068173 40.6202244 4.08572588 33.43017578 4.10986328 C30.98386921 4.11992504 28.53757467 4.13357581 26.09130859 4.15087891 C22.57646718 4.17511919 19.0617847 4.18648138 15.546875 4.1953125 C14.4519574 4.20563507 13.35703979 4.21595764 12.22894287 4.22659302 C10.69780853 4.22681961 10.69780853 4.22681961 9.13574219 4.22705078 C8.23861511 4.231492 7.34148804 4.23593323 6.41717529 4.24050903 C3.84417106 3.98449501 2.21450429 3.30021324 0 2 C0 1.34 0 0.68 0 0 Z " fill="#5B5B5B" transform="translate(2,230)"/>
<path d="M0 0 C2.64 0 5.28 0 8 0 C8 0.33 8 0.66 8 1 C21.365 1.495 21.365 1.495 35 2 C35 2.33 35 2.66 35 3 C23.45 3 11.9 3 0 3 C0 2.01 0 1.02 0 0 Z " fill="#D9122F" transform="translate(2,160)"/>
<path d="M0 0 C10.89 0 21.78 0 33 0 C33 0.99 33 1.98 33 3 C30.36 3 27.72 3 25 3 C25 2.34 25 1.68 25 1 C16.75 1 8.5 1 0 1 C0 0.67 0 0.34 0 0 Z " fill="#CA162B" transform="translate(219,94)"/>
<path d="M0 0 C5.61 0 11.22 0 17 0 C17 0.66 17 1.32 17 2 C13.87819599 2.96661363 11.47916205 2.98988909 8.25 2.5625 C7.05117187 2.40974609 7.05117187 2.40974609 5.828125 2.25390625 C5.22484375 2.17011719 4.6215625 2.08632813 4 2 C4 2.66 4 3.32 4 4 C2.68 3.34 1.36 2.68 0 2 C0 1.34 0 0.68 0 0 Z " fill="#6ECBD9" transform="translate(103,40)"/>
<path d="M0 0 C0.33 0.66 0.66 1.32 1 2 C1.99 2 2.98 2 4 2 C3.67 3.98 3.34 5.96 3 8 C0.625 7.8125 0.625 7.8125 -2 7 C-3.3125 4.4375 -3.3125 4.4375 -4 2 C-2.68 2 -1.36 2 0 2 C0 1.34 0 0.68 0 0 Z " fill="#C8E9EF" transform="translate(83,77)"/>
<path d="M0 0 C2.475 0.99 2.475 0.99 5 2 C5 2.66 5 3.32 5 4 C4.34 4 3.68 4 3 4 C2.67 4.99 2.34 5.98 2 7 C-0.0625 7.6875 -0.0625 7.6875 -2 8 C-1.67 6.68 -1.34 5.36 -1 4 C-1.66 4 -2.32 4 -3 4 C-3 3.34 -3 2.68 -3 2 C-2.01 2 -1.02 2 0 2 C0 1.34 0 0.68 0 0 Z " fill="#CBEAF0" transform="translate(64,77)"/>
<path d="M0 0 C0.66 0 1.32 0 2 0 C2 0.99 2 1.98 2 3 C2.99 3.33 3.98 3.66 5 4 C4.67 5.32 4.34 6.64 4 8 C1.625 7.75 1.625 7.75 -1 7 C-2.3125 4.9375 -2.3125 4.9375 -3 3 C-2.01 3 -1.02 3 0 3 C0 2.01 0 1.02 0 0 Z " fill="#CBEAF0" transform="translate(101,58)"/>
<path d="M0 0 C0.66 0 1.32 0 2 0 C2 0.99 2 1.98 2 3 C2.99 3.33 3.98 3.66 5 4 C4.67 5.32 4.34 6.64 4 8 C2.35 8 0.7 8 -1 8 C-1.66 6.35 -2.32 4.7 -3 3 C-2.01 3 -1.02 3 0 3 C0 2.01 0 1.02 0 0 Z " fill="#D8EFF3" transform="translate(101,39)"/>
<path d="M0 0 C0.33 0.66 0.66 1.32 1 2 C1.99 2 2.98 2 4 2 C3.67 3.98 3.34 5.96 3 8 C1.35 7.67 -0.3 7.34 -2 7 C-2.33 5.68 -2.66 4.36 -3 3 C-2.34 3 -1.68 3 -1 3 C-0.67 2.01 -0.34 1.02 0 0 Z " fill="#CAEAF0" transform="translate(139,77)"/>
<path d="M0 0 C0.66 0 1.32 0 2 0 C2 0.66 2 1.32 2 2 C2.99 2 3.98 2 5 2 C5 2.66 5 3.32 5 4 C4.34 4 3.68 4 3 4 C2.67 4.99 2.34 5.98 2 7 C1.01 7 0.02 7 -1 7 C-1 6.01 -1 5.02 -1 4 C-1.66 4 -2.32 4 -3 4 C-3 3.34 -3 2.68 -3 2 C-2.01 2 -1.02 2 0 2 C0 1.34 0 0.68 0 0 Z " fill="#CBEAF0" transform="translate(101,77)"/>
<path d="M0 0 C0.33 0.66 0.66 1.32 1 2 C1.99 2 2.98 2 4 2 C3.67 3.65 3.34 5.3 3 7 C1.35 7 -0.3 7 -2 7 C-2.66 5.35 -3.32 3.7 -4 2 C-2.68 2 -1.36 2 0 2 C0 1.34 0 0.68 0 0 Z " fill="#D2EDF2" transform="translate(139,40)"/>
<path d="M0 0 C0.33 0.66 0.66 1.32 1 2 C3.02463255 2.65213292 3.02463255 2.65213292 5 3 C3.75 5 3.75 5 2 7 C0.68 7 -0.64 7 -2 7 C-2.33 5.35 -2.66 3.7 -3 2 C-2.01 2 -1.02 2 0 2 C0 1.34 0 0.68 0 0 Z " fill="#D3EDF2" transform="translate(120,40)"/>
<path d="M0 0 C1.32 1.32 2.64 2.64 4 4 C3.67 4.99 3.34 5.98 3 7 C1.35 7.33 -0.3 7.66 -2 8 C-2.33 6.02 -2.66 4.04 -3 2 C-2.01 2 -1.02 2 0 2 C0 1.34 0 0.68 0 0 Z " fill="#CEEBF1" transform="translate(120,77)"/>
<path d="M0 0 C0.33 0.99 0.66 1.98 1 3 C1.99 3.33 2.98 3.66 4 4 C3.34 5.32 2.68 6.64 2 8 C0.68 8 -0.64 8 -2 8 C-2.33 6.35 -2.66 4.7 -3 3 C-2.34 3 -1.68 3 -1 3 C-0.67 2.01 -0.34 1.02 0 0 Z " fill="#D6EFF3" transform="translate(139,58)"/>
<path d="M0 0 C5.94 0 11.88 0 18 0 C17.67 0.66 17.34 1.32 17 2 C16.3709375 1.98839844 15.741875 1.97679687 15.09375 1.96484375 C9.61930912 1.90713127 4.41542194 2.19771527 -1 3 C-0.67 2.01 -0.34 1.02 0 0 Z " fill="#48BFD0" transform="translate(12,42)"/>
<path d="M0 0 C0.33 0.66 0.66 1.32 1 2 C1.99 2.33 2.98 2.66 4 3 C3.34 4.32 2.68 5.64 2 7 C0.68 7 -0.64 7 -2 7 C-2.33 5.35 -2.66 3.7 -3 2 C-2.01 2 -1.02 2 0 2 C0 1.34 0 0.68 0 0 Z " fill="#DBF1F4" transform="translate(83,59)"/>
<path d="M0 0 C5.94 0.33 11.88 0.66 18 1 C16 3 16 3 12.0859375 3.1953125 C10.51550649 3.18200376 8.94513779 3.15813602 7.375 3.125 C6.57320312 3.11597656 5.77140625 3.10695312 4.9453125 3.09765625 C2.96341477 3.07406223 0.98167019 3.03819065 -1 3 C-0.67 2.01 -0.34 1.02 0 0 Z " fill="#61C7D6" transform="translate(14,40)"/>
<path d="M0 0 C0.33 0.66 0.66 1.32 1 2 C1.99 2.33 2.98 2.66 4 3 C3.34 4.32 2.68 5.64 2 7 C-1 6 -1 6 -2.1875 3.9375 C-2.5896875 2.9784375 -2.5896875 2.9784375 -3 2 C-2.01 2 -1.02 2 0 2 C0 1.34 0 0.68 0 0 Z " fill="#E5F4F7" transform="translate(120,59)"/>
<path d="M0 0 C0.99 0.33 1.98 0.66 3 1 C-0.465 3.97 -0.465 3.97 -4 7 C-4.33 5.68 -4.66 4.36 -5 3 C-2.6875 1.4375 -2.6875 1.4375 0 0 Z " fill="#23889A" transform="translate(7,31)"/>
<path d="M0 0 C2.31 0 4.62 0 7 0 C7 0.99 7 1.98 7 3 C4.69 3 2.38 3 0 3 C0 2.01 0 1.02 0 0 Z " fill="#BA1325" transform="translate(2,94)"/>
<path d="M0 0 C2.64 0 5.28 0 8 0 C6.8125 1.5 6.8125 1.5 5 3 C2.3125 3.1875 2.3125 3.1875 0 3 C0 2.01 0 1.02 0 0 Z " fill="#B81227" transform="translate(2,160)"/>
</svg>
